{"glyphs":{"0":{"ha":1079,"x_min":1,"x_max":658,"o":"m 281 654 q 253 657 264 657 l 250 657 q 113 565 171 650 q 51 342 49 472 q 113 116 54 204 q 260 29 172 28 q 281 31 274 29 q 192 158 225 76 q 158 342 160 239 q 228 594 156 488 q 281 654 258 635 m 332 631 q 269 565 296 606 q 208 343 206 474 q 244 163 210 240 q 335 53 279 86 q 404 135 375 81 q 456 344 458 233 q 419 517 454 440 q 332 631 385 593 m 404 657 q 383 654 397 657 q 471 524 438 606 q 506 346 504 442 q 449 111 508 221 q 389 32 421 63 q 414 29 406 29 q 557 135 500 29 q 608 346 611 235 q 547 567 606 476 q 407 657 488 657 l 404 657 m 413 707 q 585 600 514 704 q 658 347 656 496 q 601 111 661 221 q 415 -21 529 -21 q 336 -4 372 -21 q 260 -21 300 -21 q 78 81 150 -22 q 1 342 6 183 q 72 593 -1 488 q 250 708 144 700 q 258 707 256 708 q 333 688 297 707 q 406 708 361 703 q 413 707 411 708 z "},"1":{"ha":836,"x_min":-36,"x_max":415,"o":"m 19 432 l -36 432 q 81 619 -35 435 q 114 674 100 651 q 122 689 119 682 l 126 694 l 176 694 l 176 686 l 176 664 l 176 585 l 176 347 l 176 108 l 176 50 l 207 50 l 235 50 l 235 108 l 235 347 l 235 585 l 235 664 l 235 686 l 235 694 l 285 694 l 285 686 l 285 664 l 285 585 l 285 347 l 285 108 l 285 50 l 350 50 l 397 50 l 410 50 l 415 50 l 415 0 l 410 0 l 397 0 l 350 0 l 285 0 l 235 0 l 207 0 l 64 0 l 17 0 l 4 0 l -1 0 l -1 50 l 4 50 l 17 50 l 64 50 l 126 50 l 126 108 l 126 347 l 126 585 l 126 604 q 73 518 103 565 q 19 432 43 471 z "},"2":{"ha":981,"x_min":51,"x_max":560,"o":"m 101 128 l 138 128 l 163 128 q 197 171 172 143 q 321 260 239 213 q 350 276 326 263 q 378 292 374 290 q 481 372 460 339 q 503 455 506 411 q 474 532 501 499 q 444 429 476 478 q 392 376 426 401 q 326 335 363 354 q 299 319 322 332 q 269 303 275 306 q 156 221 193 258 q 101 128 114 179 m 81 496 l 81 507 q 81 517 81 510 q 82 529 82 525 q 100 594 90 574 q 135 650 114 629 q 260 707 183 703 q 385 682 326 711 q 460 600 438 654 q 544 489 526 565 q 519 347 563 413 q 467 294 500 319 q 400 253 438 272 q 343 221 379 239 q 231 139 268 176 l 219 128 l 279 128 l 421 128 l 467 128 l 481 128 l 485 128 l 485 82 l 481 82 l 467 82 l 421 82 l 279 82 l 189 82 q 176 46 181 65 l 213 46 l 354 46 l 496 46 l 542 46 l 556 46 l 560 46 l 560 0 l 556 0 l 542 0 l 496 0 l 354 0 l 213 0 l 165 0 l 153 0 l 149 0 l 126 26 q 140 82 128 53 l 138 82 l 92 82 l 78 82 l 74 82 l 51 108 q 124 253 61 189 q 246 342 163 294 q 275 358 251 344 q 303 374 299 372 q 406 454 383 418 q 424 567 440 506 q 338 579 379 583 q 243 538 278 575 q 215 492 226 521 q 203 438 207 467 q 202 429 203 435 q 200 421 201 424 l 200 415 l 200 414 l 156 415 l 156 417 l 156 424 q 156 433 156 426 q 157 444 157 440 q 174 507 165 489 q 210 568 186 544 q 335 625 256 618 q 390 622 360 626 q 364 642 381 632 q 263 661 318 665 q 168 619 203 657 q 142 576 154 606 q 128 524 132 554 q 126 504 126 517 q 125 499 125 503 l 125 497 l 81 496 z "},"3":{"ha":1064,"x_min":76,"x_max":642,"o":"m 460 400 l 481 404 q 571 528 574 431 q 536 610 569 576 q 447 654 503 644 q 507 533 507 608 q 460 400 507 447 m 456 51 q 557 110 518 67 q 597 211 596 154 q 563 296 597 265 q 488 333 536 322 q 481 335 483 333 q 485 329 482 332 q 525 204 522 289 q 456 51 528 108 m 192 494 q 265 649 194 590 q 274 656 271 654 q 190 617 228 649 q 135 493 136 569 l 90 494 q 160 650 93 592 q 304 703 219 706 q 357 696 340 700 q 403 703 382 703 q 554 656 493 706 q 617 529 615 607 q 521 371 619 415 q 594 329 567 354 q 642 211 643 282 q 567 58 640 119 q 390 -1 494 -4 q 351 3 369 -1 q 290 -1 322 -1 q 149 54 208 1 q 76 215 76 118 l 121 215 q 178 89 121 138 q 257 49 211 57 q 253 51 256 50 q 249 54 250 53 q 178 215 178 118 l 222 215 q 279 89 222 138 q 351 50 308 61 q 447 105 411 64 q 481 203 482 146 q 451 300 479 268 q 386 333 428 324 q 342 339 372 336 q 286 343 339 339 l 267 343 l 261 343 l 260 343 l 258 343 l 257 389 l 258 389 l 260 389 l 264 389 q 283 390 276 389 q 339 396 322 393 q 379 404 364 400 q 461 533 464 428 q 413 624 461 592 q 357 649 390 640 q 294 614 319 638 q 236 493 239 568 l 192 494 z "},"4":{"ha":836,"x_min":-68,"x_max":415,"o":"m 235 290 l 193 290 l 176 290 l 176 108 l 176 50 l 207 50 l 235 50 l 235 108 l 235 290 m 22 340 l 40 340 l 126 340 l 126 347 l 126 556 q 22 340 42 381 m -1 50 l 4 50 l 17 50 l 64 50 l 126 50 l 126 108 l 126 290 l 40 290 l -1 290 l -11 290 l -25 290 l -29 290 l -68 292 q 5 444 -37 357 q 71 581 47 531 q 111 663 94 628 q 122 686 117 676 l 126 694 l 176 694 l 176 686 l 176 664 l 176 585 l 176 347 l 176 340 l 193 340 l 235 340 l 235 347 l 235 585 l 235 664 l 235 686 l 235 694 l 285 694 l 285 686 l 285 664 l 285 585 l 285 347 l 285 340 l 346 340 l 396 340 l 410 340 l 415 340 l 415 290 l 410 290 l 396 290 l 346 290 l 285 290 l 285 108 l 285 50 l 350 50 l 397 50 l 410 50 l 415 50 l 415 0 l 410 0 l 397 0 l 350 0 l 285 0 l 235 0 l 207 0 l 64 0 l 17 0 l 4 0 l -1 0 l -1 50 z "},"5":{"ha":1194,"x_min":113,"x_max":771,"o":"m 399 644 q 400 535 400 594 l 400 424 l 400 388 l 400 378 l 400 374 l 350 374 l 350 378 l 350 388 l 350 424 l 350 535 q 349 644 350 594 l 326 644 l 288 644 l 288 535 q 289 425 289 475 l 289 389 l 289 379 l 289 375 l 239 375 l 239 379 l 239 389 l 239 425 q 238 535 239 475 l 238 644 l 238 681 l 238 692 l 238 694 l 288 694 l 326 694 l 368 694 l 399 694 l 461 694 l 594 694 l 639 694 l 651 694 l 656 694 l 656 644 l 651 644 l 639 644 l 594 644 l 461 644 l 399 644 m 163 201 q 247 54 167 117 q 360 21 289 24 q 356 24 357 24 q 251 210 256 101 l 301 211 q 386 64 303 128 q 453 35 414 43 q 515 67 490 49 q 582 174 574 111 q 522 317 594 250 l 557 354 q 632 165 650 268 q 556 36 619 89 q 654 75 615 47 q 721 183 710 117 q 661 326 733 260 l 694 363 q 771 175 786 279 q 683 36 756 90 q 524 -19 622 -12 q 456 -17 490 -21 q 385 -28 419 -26 q 217 15 281 -35 q 113 200 117 90 l 163 201 z "},"6":{"ha":951,"x_min":-51,"x_max":531,"o":"m 386 60 q 438 101 414 74 q 481 228 478 150 q 431 349 481 306 q 325 390 385 390 q 197 333 254 393 q 144 165 132 268 q 149 156 146 161 q 303 42 189 42 q 308 46 306 44 q 371 154 360 90 q 315 297 382 232 l 350 333 q 419 146 436 247 q 386 60 414 103 m -1 182 q 74 33 0 97 q 190 1 118 -3 q 221 6 201 3 q 172 35 196 15 q 101 138 125 72 q 75 258 82 189 q 74 365 71 307 q 135 585 82 494 q 317 699 203 699 q 459 651 399 700 q 519 535 519 603 l 469 535 q 425 615 469 581 q 318 649 381 650 q 178 558 232 649 q 124 363 131 478 q 123 340 124 356 q 122 318 122 325 q 161 369 142 350 q 326 440 235 443 q 464 386 406 440 q 531 228 531 324 q 476 69 528 133 q 319 -8 418 -1 q 194 -49 265 -42 q 42 -4 101 -56 q -51 181 -47 71 l -1 182 z "},"7":{"ha":1028,"x_min":4,"x_max":606,"o":"m 168 0 l 108 0 q 139 47 135 42 q 151 68 144 56 l 199 143 q 340 369 264 246 l 483 596 q 529 669 510 639 l 547 696 l 606 697 q 585 664 589 669 q 572 643 581 656 q 525 568 553 613 q 383 343 461 465 q 242 117 306 219 q 194 42 214 72 l 168 0 m 6 597 l 10 597 l 22 597 l 67 597 l 200 597 l 333 597 l 378 597 l 383 597 l 414 644 l 383 644 l 231 644 l 78 644 l 28 644 l 14 644 l 8 644 l 8 694 l 14 694 l 28 694 l 78 694 l 231 694 l 383 694 l 435 694 l 446 694 l 449 694 l 454 694 l 504 694 q 474 647 478 653 l 461 626 q 414 551 442 596 q 271 326 349 449 l 128 101 l 81 26 l 64 0 l 4 0 q 25 32 21 26 l 39 53 l 85 128 q 229 353 150 231 l 351 547 l 333 547 l 200 547 l 67 547 l 22 547 l 10 547 l 6 547 l 6 597 z "},"8":{"ha":1194,"x_min":111,"x_max":771,"o":"m 579 481 q 494 628 575 567 q 447 650 475 642 q 347 608 390 640 q 282 499 293 568 q 281 478 281 492 q 342 358 281 411 l 308 321 q 231 478 231 389 q 232 506 231 496 q 317 649 244 593 q 326 656 318 650 q 226 614 267 644 q 161 504 169 571 q 221 364 150 425 l 188 326 q 111 511 96 406 q 196 654 124 599 q 356 708 264 704 q 450 701 404 713 q 464 703 456 703 q 478 704 472 703 l 499 704 q 644 663 586 704 q 750 478 746 590 l 700 476 q 615 622 697 564 q 546 650 585 644 q 629 483 625 579 l 579 481 m 163 201 q 247 54 167 117 q 360 21 289 24 q 356 24 357 24 q 251 210 256 101 l 301 211 q 386 64 303 128 q 453 35 414 43 q 515 67 490 49 q 582 174 574 111 q 522 317 594 250 l 557 354 q 632 165 650 268 q 556 36 619 89 q 654 75 615 47 q 721 183 710 117 q 661 326 733 260 l 694 363 q 771 175 786 279 q 683 36 756 90 q 524 -19 622 -12 q 456 -17 490 -21 q 385 -28 419 -26 q 217 15 281 -35 q 113 200 117 90 l 163 201 z "},"9":{"ha":1113,"x_min":104,"x_max":681,"o":"m 490 531 q 486 540 488 536 q 326 653 440 654 q 196 592 244 651 q 154 464 154 538 q 206 343 156 388 q 311 303 253 303 q 439 361 385 303 q 490 531 503 425 m 281 218 q 357 71 285 129 q 376 56 367 61 q 460 136 426 79 q 513 332 506 215 l 513 378 q 475 326 499 350 q 311 253 406 253 q 172 306 232 253 q 104 464 107 365 q 157 622 104 557 q 325 703 221 701 q 461 661 407 703 q 532 558 510 621 q 560 438 554 501 q 561 331 565 374 q 503 111 557 204 q 439 35 476 64 q 560 74 508 28 q 628 188 606 111 q 632 378 651 278 l 681 388 q 676 175 704 271 q 593 35 651 85 q 486 -13 546 -4 q 374 1 426 -22 q 322 -6 346 -6 q 179 40 240 -8 q 118 157 118 89 l 168 157 q 210 79 168 113 q 311 44 251 46 q 231 217 235 118 l 281 218 z "}," ":{"ha":417,"x_min":0,"x_max":0,"o":""},"!":{"ha":581,"x_min":108,"x_max":160,"o":"m 160 694 l 160 688 l 160 668 l 160 601 q 159 508 160 558 q 158 400 158 457 l 158 197 l 158 131 l 158 113 l 158 106 l 108 106 l 108 113 l 108 131 l 108 197 l 108 400 q 109 508 108 457 q 110 601 110 558 l 110 668 l 110 688 l 110 694 l 160 694 m 160 51 l 160 43 q 159 35 160 39 q 158 25 158 31 l 158 8 l 158 0 l 108 0 l 108 8 l 108 25 q 109 35 108 31 q 110 43 110 39 l 110 51 l 160 51 z "},"\"":{"ha":581,"x_min":108,"x_max":160,"o":"m 160 694 l 160 689 l 160 678 q 158 643 160 663 l 158 608 l 158 596 l 158 592 l 108 592 l 108 597 l 108 608 l 108 643 q 110 678 110 663 l 110 689 l 110 694 l 160 694 z "},"#":{"ha":1033,"x_min":-1,"x_max":613,"o":"m 446 432 l 304 432 l 165 432 l 165 347 l 165 272 l 307 272 l 446 272 l 446 347 l 446 432 m -1 482 l 6 482 l 25 482 l 94 482 l 115 482 l 115 585 l 115 664 l 115 686 l 115 694 l 165 694 l 165 686 l 165 664 l 165 585 l 165 482 l 304 482 l 446 482 l 446 586 l 446 664 l 446 686 l 446 694 l 496 694 l 496 686 l 496 664 l 496 586 l 496 482 l 514 482 l 582 482 l 601 482 l 608 482 l 608 432 l 601 432 l 582 432 l 514 432 l 496 432 l 496 347 l 496 272 l 517 272 l 586 272 l 606 272 l 613 272 l 613 222 l 606 222 l 586 222 l 517 222 l 496 222 l 496 108 l 496 29 l 496 7 l 496 -1 l 446 -1 l 446 7 l 446 29 l 446 108 l 446 222 l 307 222 l 165 222 l 165 108 l 165 29 l 165 7 l 165 0 l 115 0 l 115 7 l 115 29 l 115 108 l 115 222 l 97 222 l 29 222 l 10 222 l 3 222 l 3 272 l 10 272 l 29 272 l 97 272 l 115 272 l 115 347 l 115 432 l 94 432 l 25 432 l 6 432 l -1 432 l -1 482 z "},"$":{"ha":1172,"x_min":-6,"x_max":750,"o":"m 397 876 l 397 865 l 397 832 l 397 713 l 397 710 q 450 701 425 707 q 464 703 456 703 q 478 704 472 703 q 644 663 579 711 q 750 478 746 590 l 700 476 q 615 622 697 564 q 546 650 585 644 q 629 483 625 579 l 579 481 q 494 628 575 567 q 447 650 475 642 q 397 636 425 646 l 397 351 l 397 68 q 464 175 453 111 q 404 318 476 251 l 438 354 q 514 167 529 271 q 431 31 499 83 q 513 67 478 43 q 579 175 571 111 q 519 318 592 251 l 554 354 q 629 167 646 268 q 543 28 617 83 q 397 -26 488 -15 l 397 -128 l 397 -161 l 397 -172 l 347 -172 l 347 -161 l 347 -128 l 347 -28 q 304 -22 332 -28 q 265 -28 290 -25 q 99 15 165 -35 q -6 201 -1 93 l 44 203 q 129 56 47 118 q 203 25 157 33 q 110 201 114 100 l 160 203 q 244 56 164 118 q 306 28 271 36 q 319 32 310 29 q 335 37 328 35 q 347 40 342 39 l 347 351 l 347 608 q 282 499 293 568 q 342 358 271 419 l 308 321 q 232 506 218 399 q 317 649 244 593 q 326 656 318 650 q 226 614 267 644 q 161 504 169 571 q 221 364 150 425 l 188 326 q 111 511 96 406 q 196 654 124 599 q 347 708 256 700 l 347 713 l 347 832 l 347 865 l 347 876 l 397 876 z "},"%":{"ha":943,"x_min":-15,"x_max":521,"o":"m 404 199 q 358 177 376 196 q 340 133 339 158 q 360 85 342 103 q 408 67 379 67 q 456 89 436 67 q 471 132 471 111 q 451 178 469 160 q 406 199 432 197 l 404 199 m 408 247 q 487 213 454 246 q 521 133 519 181 q 494 58 522 96 q 408 17 461 17 q 326 49 358 17 q 290 132 293 82 q 322 212 289 178 q 404 249 356 246 q 408 247 407 249 m 99 657 q 52 635 71 654 q 35 592 33 617 q 55 544 36 563 q 103 525 74 525 q 150 549 131 525 q 165 590 165 568 q 145 638 164 618 q 100 657 126 657 l 99 657 m 103 707 q 181 672 149 704 q 215 593 214 639 q 188 517 218 553 q 103 475 154 475 q 19 508 53 475 q -15 590 -14 540 q 17 670 -17 636 q 99 707 50 704 l 103 707 m 504 694 q 474 647 478 653 l 461 626 q 414 551 442 596 q 271 326 349 449 l 128 101 l 81 26 l 64 0 l 4 0 q 25 32 21 26 l 39 53 l 85 128 q 229 353 150 231 q 372 578 307 476 q 419 653 399 622 l 446 694 l 504 694 z "},"&":{"ha":1201,"x_min":94,"x_max":779,"o":"m 340 660 q 321 661 333 661 q 247 634 275 661 q 219 563 219 607 q 271 453 219 522 q 285 437 275 449 q 301 417 294 425 q 347 444 324 428 q 301 564 301 511 q 340 660 301 628 m 392 644 q 351 564 351 625 q 388 475 351 528 q 390 478 390 475 q 433 563 433 517 q 400 638 433 613 q 396 641 399 639 q 392 644 393 643 m 290 353 q 190 285 215 308 q 144 189 144 242 q 188 81 144 119 q 293 44 232 40 q 471 138 401 49 q 385 242 449 164 l 372 256 q 332 303 361 271 q 296 346 318 324 q 290 353 292 350 m 524 233 q 519 238 522 235 q 515 243 517 242 l 504 257 q 464 304 499 263 q 378 404 447 321 q 369 399 372 401 q 359 392 364 396 q 347 385 354 389 q 335 378 340 381 q 371 336 363 344 q 411 288 386 318 l 422 275 q 500 182 469 218 q 524 233 511 201 m 538 293 q 540 316 539 301 q 542 332 542 331 l 592 332 q 579 244 589 289 q 647 163 603 218 q 699 100 692 108 q 721 72 704 93 q 746 42 738 51 l 758 26 l 779 0 l 715 0 q 707 11 713 4 q 660 68 665 61 q 560 190 626 110 q 533 140 551 168 q 568 99 546 126 q 615 42 603 56 l 628 25 l 649 0 l 585 0 q 576 10 581 4 q 529 68 567 22 q 504 99 513 88 q 294 -6 422 -1 q 154 43 211 -10 q 94 189 94 99 q 156 321 94 263 q 214 365 181 343 q 226 373 219 369 q 241 382 232 376 q 257 392 250 388 q 232 424 239 411 q 169 563 169 506 q 211 668 169 626 q 319 711 253 710 q 431 678 386 711 q 483 563 486 636 q 425 440 482 493 q 418 435 422 439 q 430 419 424 428 q 447 399 436 411 q 464 379 457 388 q 483 358 467 375 q 501 336 499 340 q 538 293 515 321 z "},"'":{"ha":581,"x_min":108,"x_max":160,"o":"m 160 694 l 160 689 l 160 678 q 158 643 160 663 l 158 608 l 158 596 l 158 592 l 108 592 l 108 597 l 108 608 l 108 643 q 110 678 110 663 l 110 689 l 110 694 l 160 694 z "},"(":{"ha":694,"x_min":118,"x_max":272,"o":"m 225 -87 q 224 -85 224 -86 q 219 -78 222 -83 q 214 -65 218 -74 q 208 -50 210 -56 q 172 47 186 1 q 118 340 119 199 q 174 653 118 490 q 211 750 192 710 l 222 778 l 226 786 l 228 788 l 228 789 l 272 765 q 271 764 272 764 q 268 757 271 763 q 265 750 267 754 q 260 740 263 746 q 257 731 258 735 q 221 636 236 685 q 168 340 168 478 q 219 63 169 213 q 254 -31 240 1 q 265 -57 264 -56 l 268 -62 q 269 -65 269 -64 l 225 -87 z "},")":{"ha":706,"x_min":118,"x_max":285,"o":"m 121 -65 q 122 -62 122 -64 q 125 -57 125 -60 q 139 -31 133 -40 q 178 63 163 22 q 235 340 233 210 q 176 635 236 474 q 136 729 163 675 q 122 756 131 739 l 121 758 l 119 761 l 119 763 l 118 764 l 161 789 l 161 788 l 163 786 l 167 778 q 181 751 175 763 q 224 653 199 715 q 285 339 286 482 q 225 44 283 203 q 183 -53 200 -17 q 169 -79 178 -64 q 167 -87 167 -85 l 165 -89 l 121 -65 z "},"*":{"ha":833,"x_min":117,"x_max":411,"o":"m 289 940 l 289 933 l 289 915 q 290 858 290 889 l 290 826 q 331 840 319 836 q 375 856 356 849 q 390 861 383 858 q 396 863 394 863 l 411 815 l 406 814 q 392 808 400 811 q 347 793 371 801 q 326 786 336 789 q 308 781 315 783 l 374 686 l 333 657 l 267 753 l 243 717 q 215 678 228 696 q 206 665 210 671 q 203 660 203 661 l 161 689 q 165 693 163 689 q 174 707 168 699 q 201 746 186 725 q 215 764 208 754 q 226 781 221 774 q 224 782 225 782 q 219 783 221 783 q 178 800 200 790 l 136 815 q 122 821 128 819 q 117 824 118 822 l 135 869 q 140 868 136 869 q 154 863 146 865 q 196 846 172 856 q 238 831 218 838 q 240 829 238 829 l 240 858 q 239 914 240 889 l 239 933 l 239 940 l 289 940 z "},"+":{"ha":1068,"x_min":201,"x_max":647,"o":"m 443 603 l 443 597 l 443 582 l 443 524 l 443 382 l 578 382 l 628 382 l 642 382 l 647 382 l 647 332 l 642 332 l 628 332 l 578 332 l 443 332 q 442 175 443 250 l 442 118 l 442 101 l 442 96 l 392 96 l 392 103 l 392 118 l 392 175 q 393 332 393 250 l 271 332 l 221 332 l 207 332 l 201 332 l 201 382 l 207 382 l 221 382 l 271 382 l 393 382 l 393 524 l 393 582 l 393 597 l 393 604 l 443 603 z "},",":{"ha":593,"x_min":121,"x_max":172,"o":"m 172 38 l 172 33 l 172 21 l 172 -14 q 171 -49 171 -33 l 171 -60 l 171 -65 l 121 -65 l 121 -60 l 121 -49 q 122 -14 121 -33 l 122 21 l 122 33 l 122 38 l 172 38 z "},"-":{"ha":867,"x_min":0,"x_max":446,"o":"m 0 397 l 6 397 l 19 397 l 69 397 l 222 397 l 376 397 l 426 397 l 440 397 l 446 397 l 446 347 l 440 347 l 426 347 l 376 347 l 222 347 l 69 347 l 19 347 l 6 347 l 0 347 l 0 397 z "},".":{"ha":581,"x_min":108,"x_max":160,"o":"m 160 51 l 160 43 q 158 25 160 35 l 158 8 l 158 0 l 108 0 l 108 8 l 108 25 q 110 43 110 35 l 110 51 l 160 51 z "},"/":{"ha":761,"x_min":13,"x_max":339,"o":"m 339 696 q 108 108 151 217 q 78 29 90 63 l 67 0 l 13 0 q 63 126 43 81 l 288 696 l 339 696 z "},":":{"ha":581,"x_min":-903,"x_max":160,"o":"m -899 1310 l -903 1450 l -853 1453 l -849 1313 l -899 1310 m 160 51 l 160 43 q 158 25 160 35 l 158 8 l 158 0 l 108 0 l 108 8 l 108 25 q 110 43 110 35 l 110 51 l 160 51 m 156 468 l 156 460 l 156 442 l 156 425 l 156 417 l 106 417 l 106 425 l 106 443 l 106 460 l 106 468 l 156 468 z "},";":{"ha":593,"x_min":-903,"x_max":172,"o":"m -899 1310 l -903 1450 l -853 1453 l -849 1313 l -899 1310 m 172 38 l 172 33 l 172 21 l 172 -14 q 171 -49 171 -33 l 171 -60 l 171 -65 l 121 -65 l 121 -60 l 121 -49 q 122 -14 121 -33 l 122 21 l 122 33 l 122 38 l 172 38 m 172 469 l 172 461 l 172 444 l 172 426 l 172 418 l 122 418 l 122 426 l 122 444 l 122 461 l 122 469 l 172 469 z "},"<":{"ha":1015,"x_min":101,"x_max":593,"o":"m 101 322 l 108 385 q 124 390 114 388 q 175 411 144 399 q 332 471 247 438 q 490 532 418 504 q 542 551 521 543 l 579 567 l 579 513 l 574 510 q 560 504 568 508 q 508 485 538 496 q 350 424 436 457 l 193 364 l 163 353 l 193 340 l 356 279 q 519 217 444 244 q 572 196 550 204 l 588 190 l 593 189 l 593 136 q 554 150 564 146 q 501 169 532 158 q 338 232 426 199 q 175 294 249 267 q 121 315 143 306 l 106 321 l 104 322 q 101 322 103 322 z "},"=":{"ha":865,"x_min":-1,"x_max":444,"o":"m -1 258 l 4 258 l 18 258 l 68 258 l 222 258 l 375 258 l 425 258 l 439 258 l 444 258 l 444 208 l 439 208 l 425 208 l 375 208 l 222 208 l 68 208 l 18 208 l 4 208 l -1 208 l -1 258 m 0 488 l 6 488 l 19 488 l 69 488 l 222 488 l 375 488 l 425 488 l 439 488 l 444 488 l 444 438 l 439 438 l 425 438 l 375 438 l 222 438 l 69 438 l 19 438 l 6 438 l 0 438 l 0 488 z "},">":{"ha":1001,"x_min":99,"x_max":581,"o":"m 519 351 l 488 364 q 331 424 417 392 q 172 485 243 457 q 119 504 142 496 l 106 510 l 100 513 l 100 567 q 138 551 129 554 q 190 532 160 543 q 347 471 261 504 q 506 411 435 438 q 558 390 536 399 l 572 385 l 581 382 l 581 322 l 579 322 l 578 322 l 575 321 q 561 315 569 318 q 508 294 539 306 q 349 232 436 267 q 189 169 263 199 q 138 150 158 158 l 99 136 l 100 189 l 106 190 q 119 196 111 193 q 172 217 142 204 q 332 279 244 244 q 490 340 418 313 q 519 351 511 350 z "},"?":{"ha":992,"x_min":118,"x_max":569,"o":"m 200 436 q 256 575 201 519 q 389 631 310 631 l 390 631 q 307 653 360 653 q 209 612 249 653 q 168 508 169 571 l 118 508 q 174 647 119 592 q 307 703 228 703 q 432 663 383 703 q 469 617 453 646 q 514 590 493 607 q 569 460 569 543 q 544 358 569 403 q 490 292 528 329 l 475 276 q 421 207 440 243 q 396 96 396 164 l 346 96 q 376 231 346 175 q 440 313 396 268 q 456 326 453 325 q 501 383 489 360 q 519 460 519 414 q 488 546 519 514 l 488 532 q 464 431 489 479 q 408 364 443 396 l 393 349 q 339 281 354 310 q 314 168 314 235 l 264 169 q 294 303 264 244 q 358 385 314 340 l 374 400 q 419 456 408 435 q 438 532 438 486 q 432 576 438 558 q 389 581 411 581 q 291 540 331 581 q 250 435 251 499 l 200 436 m 397 50 l 397 42 l 397 24 l 397 6 l 397 -1 l 347 -1 l 347 7 l 347 24 l 347 42 l 347 50 l 397 50 z "},"@":{"ha":1294,"x_min":136,"x_max":872,"o":"m 604 360 q 593 464 618 421 q 529 508 568 504 q 413 453 458 521 q 369 350 383 410 q 386 256 358 297 q 454 221 413 217 q 571 299 517 225 q 603 357 585 319 q 604 360 603 358 m 642 468 q 656 508 644 475 q 661 523 658 514 q 665 533 664 532 q 667 538 665 535 l 667 540 q 668 543 668 542 l 711 528 l 711 526 q 710 521 710 525 q 703 503 707 514 q 683 447 694 478 q 664 393 674 418 q 658 374 661 382 l 656 368 l 656 365 q 654 363 656 364 q 653 360 653 361 q 650 353 653 358 q 650 254 635 297 q 693 217 664 213 q 790 289 751 221 q 826 440 829 357 q 740 613 824 547 q 531 679 658 676 q 278 589 381 683 q 181 383 185 500 q 286 122 176 215 q 506 39 378 43 q 540 40 529 39 q 725 75 624 44 q 796 99 760 85 q 815 107 810 104 l 821 110 l 822 110 l 842 68 l 833 65 q 824 61 831 64 q 813 56 817 58 q 739 31 783 44 q 543 -6 636 -1 q 504 -6 522 -7 q 256 88 361 -3 q 136 385 128 197 q 247 622 140 522 q 532 725 361 729 q 768 649 675 721 q 872 442 869 571 q 829 265 875 343 q 697 171 779 176 q 642 187 667 168 q 607 239 618 206 q 600 263 601 257 q 549 210 575 229 q 458 175 508 179 q 350 227 390 169 q 325 360 310 285 q 340 411 336 400 q 375 479 351 443 q 438 539 400 518 q 538 554 482 563 q 632 488 599 544 q 642 468 638 478 z "},"A":{"ha":1125,"x_min":-15,"x_max":703,"o":"m 382 531 q 417 445 393 501 q 451 360 440 389 l 488 360 l 501 360 q 417 567 461 463 q 413 577 415 571 q 410 587 411 583 q 407 593 408 590 l 396 568 q 382 531 383 533 m 354 464 q 314 360 342 429 l 356 360 l 386 360 l 397 360 q 373 420 388 386 q 354 464 358 454 m 288 628 l 263 568 l 181 360 l 260 360 q 328 531 290 439 q 294 610 321 547 q 288 628 289 624 m 508 208 l 540 208 l 564 208 q 543 259 557 225 q 522 310 529 293 l 518 310 l 488 310 l 396 310 l 303 310 l 294 310 q 274 255 288 290 q 256 208 260 219 l 276 208 l 408 208 l 493 208 l 508 208 m 539 0 q 503 89 521 43 q 485 131 496 107 q 474 158 475 156 l 467 158 l 463 158 l 450 158 l 407 158 l 275 158 l 233 158 q 221 125 231 149 q 207 90 211 101 l 175 11 l 171 0 l 117 0 l 121 7 q 129 29 124 17 q 142 63 133 42 q 160 108 150 83 q 179 158 176 150 l 143 158 l 101 158 q 90 131 100 154 q 74 90 81 107 l 43 11 l 39 0 l -15 0 l -12 7 q -4 29 -8 17 q 28 108 10 63 l 67 210 q 83 208 78 210 l 88 208 l 100 208 l 143 208 l 199 208 q 239 310 217 253 l 169 310 l 107 311 l 124 351 l 217 586 q 247 665 235 632 q 267 714 250 672 l 286 765 l 301 726 q 302 723 301 725 q 303 719 303 721 q 306 715 304 718 q 308 708 307 713 q 340 629 322 675 q 354 597 342 626 l 381 665 q 389 685 383 671 l 406 729 l 419 693 l 422 688 q 431 665 426 678 q 464 586 444 632 q 534 416 476 557 q 618 208 592 275 q 626 189 619 207 q 658 108 642 150 q 692 29 678 63 l 700 7 l 703 0 l 649 0 q 613 89 632 43 q 597 127 606 104 q 585 158 588 150 l 583 158 l 539 158 l 528 158 q 538 136 531 153 q 549 108 544 119 q 581 29 567 63 q 590 8 586 17 l 593 0 l 539 0 z "},"B":{"ha":931,"x_min":1,"x_max":508,"o":"m 158 504 q 360 469 278 504 q 379 531 376 494 q 369 574 379 554 q 331 615 357 599 q 158 644 282 640 l 158 629 l 158 544 l 158 504 m 158 454 l 158 404 q 313 433 258 408 q 158 454 250 454 m 53 50 l 110 50 q 108 288 110 156 l 108 544 l 108 629 q 107 644 107 635 l 51 644 l 51 586 l 51 347 q 53 108 51 218 l 53 50 m 353 76 q 367 153 367 110 q 325 281 364 238 q 158 347 272 339 l 158 288 q 160 50 160 156 q 353 76 290 54 m 414 115 q 446 168 436 136 q 458 244 458 199 q 406 382 458 331 q 368 410 392 394 q 282 371 332 382 q 363 314 331 351 q 406 233 393 279 q 417 154 417 193 q 414 115 417 140 m 307 13 q 160 0 246 1 l 160 -36 q 307 13 253 -31 m 390 38 q 363 -3 381 17 q 126 -87 290 -86 l 110 -87 l 110 -78 l 110 -54 l 110 0 l 49 0 l 3 0 l 3 8 l 3 31 l 3 108 q 1 347 1 218 l 1 586 l 1 665 l 1 688 l 1 694 l 51 694 q 354 658 283 699 q 415 594 396 635 q 429 529 429 565 q 404 446 426 481 q 439 418 429 429 q 508 244 508 353 q 493 150 508 192 q 424 57 472 93 q 390 38 407 44 z "},"C":{"ha":1057,"x_min":10,"x_max":635,"o":"m 382 -21 q 218 13 292 -21 q 439 -67 308 -67 l 446 -67 l 635 -67 l 635 -117 l 438 -117 q 225 -56 317 -115 q 93 107 133 4 q 10 342 11 204 q 110 597 7 494 q 371 700 213 699 l 372 700 l 574 701 l 575 701 l 574 650 l 538 650 l 518 650 q 336 594 411 647 q 428 606 381 606 l 429 606 l 629 607 l 631 607 l 629 556 l 594 556 l 428 556 q 251 507 331 556 q 210 342 208 433 q 302 115 211 203 q 533 29 393 28 q 536 28 535 29 l 579 29 l 578 -22 l 382 -22 l 382 -21 m 324 647 q 131 546 204 631 q 60 342 58 461 q 67 278 60 313 q 215 543 78 450 q 324 647 258 607 m 329 32 q 206 160 251 79 q 160 342 161 240 q 167 426 158 382 q 115 247 114 346 q 136 132 117 186 q 329 32 214 49 z "},"D":{"ha":1081,"x_min":103,"x_max":660,"o":"m 369 500 l 369 451 q 371 281 369 358 l 371 224 l 371 207 l 371 201 l 321 201 l 321 207 l 321 224 l 321 279 q 319 451 319 357 q 318 528 319 510 q 260 546 283 542 l 260 504 q 261 299 261 411 l 261 93 q 262 66 261 79 q 263 50 263 53 q 461 107 372 54 q 506 250 506 176 q 415 463 503 375 q 369 500 392 486 m 368 646 l 368 624 l 368 560 q 450 499 417 532 q 556 251 553 394 q 547 185 556 218 q 610 353 610 264 q 517 565 607 476 q 368 646 447 631 m 153 597 l 153 590 l 153 568 q 154 489 154 535 q 156 250 154 381 q 157 11 156 119 l 157 -47 q 372 15 282 -46 q 263 0 317 1 l 239 0 l 236 0 l 213 0 l 213 7 l 213 26 q 211 93 213 54 l 211 299 q 210 503 211 410 l 210 571 l 210 590 l 210 597 l 240 597 l 244 597 q 318 582 278 596 l 318 622 l 318 679 l 318 694 l 318 700 l 343 699 q 551 601 454 694 q 660 353 657 497 q 554 117 660 219 q 497 71 529 94 q 451 17 476 42 q 157 -97 338 -96 l 157 -99 l 107 -99 l 107 -90 l 107 -68 l 107 11 q 106 250 106 119 q 104 489 104 381 q 103 568 104 535 l 103 589 l 103 597 l 153 597 z "},"E":{"ha":1015,"x_min":0,"x_max":593,"o":"m 92 457 l 92 488 l 92 597 l 92 633 l 92 643 l 92 644 l 50 644 l 50 551 l 50 457 l 81 457 l 92 457 m 92 50 l 92 100 l 92 225 l 92 267 l 92 278 l 63 278 l 50 278 l 50 250 l 50 147 l 50 50 l 81 50 l 92 50 m 0 694 l 7 694 l 25 694 l 92 694 l 293 694 l 494 694 l 561 694 l 579 694 l 586 694 l 586 644 l 579 644 l 561 644 l 494 644 l 293 644 l 143 644 l 143 614 l 160 614 l 303 614 l 447 614 l 494 614 l 507 614 l 511 614 l 511 564 l 507 564 l 494 564 l 447 564 l 303 564 l 160 564 l 143 564 l 143 551 q 142 501 143 525 q 142 457 142 476 l 257 457 l 433 457 l 492 457 l 508 457 l 514 457 l 514 407 l 508 407 l 492 407 l 433 407 l 257 407 l 142 407 l 142 378 l 142 340 l 142 331 l 142 328 l 199 328 l 336 328 l 381 328 l 394 328 l 399 328 l 399 278 l 394 278 l 381 278 l 336 278 l 199 278 l 143 278 l 143 250 l 143 244 l 172 244 l 344 244 l 515 244 l 572 244 l 588 244 l 593 244 l 593 194 l 588 194 l 572 194 l 515 194 l 344 194 l 172 194 l 143 194 l 143 149 l 143 50 l 254 50 l 429 50 l 486 50 l 503 50 l 508 50 l 508 0 l 503 0 l 486 0 l 429 0 l 254 0 l 142 0 l 142 -25 l 142 -36 l 171 -36 q 342 -37 249 -36 l 513 -37 l 568 -37 l 585 -37 l 590 -37 l 590 -87 l 585 -87 l 568 -87 l 513 -87 l 342 -87 q 171 -86 249 -86 l 114 -86 l 99 -86 l 93 -86 l 93 -82 l 92 -82 l 92 -78 l 92 -65 l 92 -25 l 92 0 l 81 0 l 50 0 l 22 0 l 7 0 l 0 0 l 0 13 l 0 46 l 0 147 l 0 250 l 0 278 l 0 283 l 0 296 l 0 328 l 4 328 l 17 328 l 63 328 l 92 328 l 92 331 l 92 340 l 92 378 l 92 407 l 81 407 l 22 407 l 6 407 l 0 407 l 0 408 l 0 421 l 0 453 l 0 457 l 0 551 l 0 644 l 0 649 l 0 682 l 0 694 z "},"F":{"ha":933,"x_min":0,"x_max":511,"o":"m 92 644 l 63 644 l 50 644 l 50 551 l 50 457 l 79 457 l 92 457 l 92 492 l 92 606 l 92 643 l 92 644 m 0 694 l 4 694 l 17 694 l 63 694 l 199 694 l 335 694 l 381 694 l 393 694 l 397 694 l 397 644 l 393 644 l 381 644 l 335 644 l 199 644 l 143 644 l 143 614 l 163 614 l 304 614 l 447 614 l 494 614 l 507 614 l 511 614 l 511 564 l 507 564 l 494 564 l 447 564 l 304 564 l 163 564 l 143 564 l 143 551 q 142 501 143 525 q 142 457 142 476 l 254 457 l 428 457 l 486 457 l 501 457 l 507 457 l 507 407 l 501 407 l 486 407 l 428 407 l 254 407 l 142 407 l 142 379 l 142 342 l 142 331 l 142 328 l 199 328 l 336 328 l 381 328 l 394 328 l 399 328 l 399 278 l 394 278 l 381 278 l 336 278 l 199 278 l 143 278 l 143 250 l 143 149 l 143 47 l 143 13 l 143 0 l 142 0 l 142 -24 l 142 -65 l 142 -78 l 142 -82 l 92 -82 l 92 -78 l 92 -65 l 92 -24 l 92 104 l 92 232 l 92 274 l 92 278 l 63 278 l 50 278 l 50 250 l 50 147 l 50 46 l 50 13 l 50 0 l 0 0 l 0 13 l 0 46 l 0 147 l 0 250 l 0 278 l 0 283 l 0 296 l 0 328 l 4 328 l 17 328 l 63 328 l 92 328 l 92 331 l 92 342 l 92 379 l 92 407 l 79 407 l 22 407 l 6 407 l 0 407 l 0 408 l 0 421 l 0 453 l 0 457 l 0 551 l 0 644 l 0 649 l 0 682 l 0 694 z "},"G":{"ha":1308,"x_min":10,"x_max":888,"o":"m 324 647 q 131 546 204 631 q 60 342 58 461 q 136 133 61 218 q 329 32 211 49 q 206 160 251 79 q 160 342 161 240 q 202 519 158 439 q 324 647 246 600 m 738 325 q 590 32 733 122 q 763 117 699 47 q 838 325 833 193 l 821 325 l 738 325 m 354 260 l 358 260 l 369 260 l 408 260 q 526 258 461 258 l 644 258 l 681 258 q 688 325 688 293 l 675 325 q 529 326 596 325 l 482 326 l 468 326 l 464 326 l 464 376 l 468 376 l 482 376 l 529 376 q 675 375 596 375 l 821 375 l 868 375 l 882 375 l 888 375 l 888 350 l 888 346 q 796 78 890 178 q 533 -21 701 -21 q 460 -15 492 -21 q 383 -21 428 -21 q 118 80 224 -22 q 10 342 13 182 q 110 597 7 494 q 371 700 213 699 l 372 700 l 574 701 l 575 701 l 574 650 l 538 650 l 518 650 q 294 561 381 649 q 210 342 207 474 q 280 140 211 222 q 460 35 349 57 q 614 117 554 53 q 668 208 649 153 l 644 208 l 526 208 q 408 210 461 208 l 369 210 l 358 210 l 354 210 l 354 260 z "},"H":{"ha":1043,"x_min":29,"x_max":622,"o":"m 125 217 l 131 217 l 147 217 l 203 217 l 374 217 l 476 217 l 476 250 l 476 279 l 449 279 l 278 279 l 107 279 l 79 279 l 79 250 l 79 149 q 81 47 81 93 l 81 14 l 81 1 l 31 1 l 31 14 l 31 47 q 29 149 31 93 l 29 250 l 29 279 l 29 285 l 29 297 l 29 329 l 35 329 l 51 329 l 107 329 l 125 329 l 125 340 l 125 346 l 125 408 l 107 408 l 51 408 l 35 408 l 29 408 l 29 410 l 29 422 l 29 454 l 29 458 l 29 551 l 29 650 l 29 683 l 29 694 l 79 694 l 79 683 l 79 650 l 79 551 l 79 458 l 107 458 l 125 458 l 125 538 l 125 569 l 125 582 l 175 582 l 175 569 l 175 538 l 175 458 l 275 458 l 443 458 l 476 458 l 476 551 l 476 650 l 476 683 l 476 696 l 526 696 l 526 683 l 526 650 l 526 551 l 526 454 l 526 421 l 526 408 l 521 408 l 515 408 l 499 408 l 443 408 l 275 408 l 175 408 l 175 346 l 203 346 l 371 346 l 539 346 l 572 346 l 572 439 l 572 538 l 572 569 l 572 582 l 622 582 l 622 569 l 622 538 l 622 439 l 622 340 l 622 308 l 622 296 l 617 296 l 611 296 l 594 296 l 539 296 l 526 296 l 526 283 l 526 250 l 526 217 l 544 217 l 600 217 l 617 217 l 622 217 l 622 183 l 622 171 l 622 138 l 622 36 l 622 -65 l 622 -99 l 622 -112 l 572 -112 l 572 -99 l 572 -65 l 572 36 l 572 138 l 572 167 l 544 167 l 526 167 l 526 149 l 526 47 l 526 14 l 526 1 l 476 1 l 476 14 l 476 47 l 476 149 l 476 167 l 374 167 l 203 167 l 175 167 l 175 138 l 175 36 q 176 -18 175 7 q 176 -65 176 -43 l 176 -100 l 176 -112 l 126 -112 l 126 -100 l 126 -65 q 126 -18 126 -43 q 125 36 125 7 l 125 138 l 125 167 l 125 171 l 125 183 l 125 217 z "},"I":{"ha":581,"x_min":0,"x_max":160,"o":"m 50 694 l 50 686 l 50 664 l 50 585 l 50 347 l 50 108 l 50 29 l 50 8 l 50 0 l 0 0 l 0 8 l 0 29 l 0 108 l 0 347 l 0 585 l 0 664 l 0 686 l 0 694 l 50 694 m 160 775 l 160 765 l 160 739 l 160 642 q 158 347 160 507 l 158 53 l 158 -44 l 158 -72 l 158 -82 l 108 -82 l 108 -72 l 108 -44 l 108 53 l 108 347 q 110 642 110 507 l 110 739 l 110 765 l 110 775 l 160 775 z "},"J":{"ha":1025,"x_min":0,"x_max":603,"o":"m 383 667 l 383 661 l 383 646 l 383 592 l 383 428 l 383 264 l 383 210 l 383 194 l 383 190 l 333 190 l 333 194 l 333 210 l 333 264 l 333 428 l 333 592 l 333 646 l 333 661 l 333 667 l 383 667 m 157 208 q 213 33 161 101 q 218 26 217 29 q 254 24 243 24 q 394 99 340 24 q 446 264 443 167 l 446 265 l 446 281 l 446 335 l 446 499 l 446 663 l 446 717 l 446 732 l 446 738 l 496 738 l 496 732 l 496 717 l 496 663 l 496 499 l 496 335 l 496 281 l 496 275 l 496 272 l 496 264 l 496 261 q 435 71 492 149 q 288 -24 379 -11 q 361 -37 319 -37 q 501 38 447 -37 q 553 192 546 101 l 553 194 l 553 208 l 553 258 l 553 407 l 553 556 l 553 606 l 553 619 l 553 624 l 603 624 l 603 619 l 603 606 l 603 556 l 603 407 l 603 258 l 603 208 l 603 197 l 603 194 q 542 8 603 93 q 361 -87 474 -87 q 192 -19 260 -87 q 65 65 117 0 q 0 268 4 144 l 0 271 l 0 300 l 50 301 l 50 271 q 106 96 54 163 q 139 61 119 76 q 107 207 110 128 l 107 208 l 107 239 l 157 240 l 157 211 l 157 208 z "},"K":{"ha":961,"x_min":0,"x_max":539,"o":"m 157 289 l 157 207 q 196 267 176 238 q 197 269 196 268 l 171 310 l 157 289 m 472 608 q 442 561 446 567 l 428 540 q 381 465 408 510 l 314 360 q 458 128 364 275 q 506 53 486 85 q 518 32 513 40 l 539 0 l 481 0 q 463 26 471 14 q 415 101 443 57 q 283 311 288 306 l 256 269 q 346 128 265 256 q 392 54 372 85 l 406 33 l 454 -49 l 396 -49 q 350 26 358 14 q 303 101 331 58 l 226 222 q 157 117 185 158 l 157 33 l 157 8 l 157 0 l 107 0 l 107 8 l 107 33 l 107 122 l 107 210 l 50 119 l 50 38 l 50 -51 l 50 -76 l 50 -85 l 0 -85 l 0 -76 l 0 -51 l 0 38 l 0 306 l 0 572 l 0 661 l 0 686 l 0 694 l 50 694 l 50 686 l 50 661 l 50 572 l 50 306 l 50 213 q 76 256 57 225 q 107 304 96 286 l 107 393 l 107 663 l 107 751 l 107 776 l 107 786 l 157 786 l 157 776 l 157 751 l 157 663 l 157 393 l 157 383 l 282 579 l 329 653 l 356 694 l 415 694 q 385 647 389 653 l 371 626 q 324 551 351 596 l 200 357 q 226 315 206 347 l 339 493 q 386 567 367 536 l 413 608 l 472 608 z "},"L":{"ha":944,"x_min":0,"x_max":522,"o":"m 157 694 l 157 686 l 157 661 l 157 572 l 157 304 l 157 50 l 207 50 l 349 50 l 396 50 l 408 50 l 414 50 l 414 0 l 408 0 l 396 0 l 349 0 l 207 0 l 157 0 l 157 -36 l 174 -36 q 315 -37 239 -36 l 458 -37 l 504 -37 l 518 -37 l 522 -37 l 522 -87 l 518 -87 l 504 -87 l 458 -87 l 315 -87 q 174 -86 239 -86 l 128 -86 l 114 -86 l 110 -86 l 107 -86 l 107 -76 l 107 -51 l 107 0 l 65 0 l 50 0 l 18 0 l 6 0 l 0 0 l 0 8 l 0 29 l 0 108 l 0 347 l 0 586 l 0 665 l 0 686 l 0 694 l 50 694 l 50 686 l 50 665 l 50 586 l 50 347 l 50 108 l 50 50 l 65 50 l 107 50 l 107 304 l 107 572 l 107 661 l 107 686 l 107 694 l 157 694 z "},"M":{"ha":1101,"x_min":1,"x_max":679,"o":"m 1 518 l 1 590 q 69 529 51 546 l 100 501 l 100 564 l 100 574 l 1 660 l 1 732 q 69 669 51 688 l 163 583 q 257 497 214 536 q 288 468 275 481 l 296 460 l 300 457 l 303 460 l 311 468 q 342 496 324 479 q 436 583 385 536 q 529 669 488 631 l 679 817 l 679 742 l 679 713 l 679 688 l 679 597 l 679 324 l 679 50 l 679 -42 l 679 -67 l 679 -75 l 629 -75 l 629 -67 l 629 -42 l 629 50 l 629 324 l 629 597 q 630 640 629 618 q 631 677 631 663 q 631 693 631 692 q 469 546 613 676 q 376 460 419 499 q 346 431 358 443 l 300 388 q 254 432 258 426 q 222 460 242 443 l 150 528 l 150 489 l 150 454 l 163 442 q 257 356 214 394 q 288 326 275 339 l 296 319 l 299 317 l 303 321 q 311 329 306 325 q 342 358 324 342 q 436 444 385 397 q 529 531 488 492 l 597 593 l 597 539 l 597 533 l 597 518 l 597 464 q 599 299 599 389 q 600 135 600 210 q 601 81 601 103 l 601 65 l 601 60 l 551 58 l 551 64 l 551 79 q 550 133 551 101 q 549 299 550 208 q 547 464 549 389 l 547 478 q 508 443 536 467 q 469 408 481 419 q 376 321 418 361 q 346 293 358 304 l 299 250 q 254 290 258 286 q 222 319 242 301 l 149 386 l 149 264 l 149 39 l 149 -35 l 149 -56 l 149 -62 l 99 -62 l 99 -56 l 99 -35 l 99 39 l 99 264 q 100 432 99 381 q 75 454 92 440 q 51 475 58 468 l 51 469 l 51 278 l 51 85 l 51 22 l 51 4 l 51 -3 l 1 -3 l 1 4 l 1 22 l 1 85 l 1 278 l 1 469 l 1 518 z "},"N":{"ha":940,"x_min":0,"x_max":518,"o":"m 0 568 l 44 521 q 58 504 50 514 q 108 449 79 482 q 260 281 176 372 q 410 113 342 189 q 460 57 439 79 q 474 42 468 47 l 514 0 l 443 0 l 436 8 q 422 24 431 14 q 372 79 401 46 q 222 247 304 156 l 167 310 l 167 304 l 167 144 l 167 -14 l 167 -65 l 167 -81 l 167 -86 l 117 -86 l 117 -81 l 117 -65 l 117 -14 l 117 144 l 117 304 l 117 356 l 117 365 l 71 415 l 50 439 l 50 419 l 50 249 l 50 79 l 50 22 l 50 7 l 50 1 l 0 1 l 0 7 l 0 22 l 0 79 l 0 249 l 0 419 l 0 475 l 0 492 l 0 497 l 0 568 m 0 739 l 44 692 q 58 676 50 685 q 108 621 79 653 q 260 451 176 544 l 361 339 l 361 364 l 361 499 l 361 635 l 361 679 l 361 692 l 361 696 l 411 696 l 411 692 l 411 679 l 411 635 l 411 499 l 411 364 l 411 319 l 411 307 l 411 283 q 460 228 439 251 l 468 219 l 468 238 l 468 256 l 468 318 l 468 507 l 468 697 l 468 760 l 468 778 l 468 783 l 518 783 l 518 778 l 518 760 l 518 697 l 518 507 l 518 318 l 518 256 l 518 238 l 518 150 l 518 88 l 436 179 q 422 194 431 185 l 374 250 q 222 418 304 326 q 71 588 140 511 q 21 643 42 619 q 7 658 13 651 l 0 667 l 0 739 z "},"O":{"ha":1243,"x_min":10,"x_max":822,"o":"m 394 -21 q 472 -29 432 -29 q 699 79 613 -29 q 772 281 775 171 q 722 443 768 371 q 738 346 736 394 q 651 107 742 218 q 394 -21 551 -17 m 225 11 q 72 140 129 53 q 10 340 14 226 q 115 600 6 490 q 372 708 226 708 q 378 707 376 708 q 638 592 529 706 q 769 464 719 546 q 822 283 818 382 q 738 47 825 154 q 474 -79 633 -79 q 225 11 324 -79 m 458 589 q 244 494 332 581 q 154 279 150 403 q 253 53 160 140 q 383 29 318 28 q 613 139 525 29 q 688 344 692 233 q 606 551 683 465 q 463 589 542 586 l 458 589 m 467 638 l 481 638 q 374 657 429 657 q 368 658 369 657 q 150 565 246 656 q 60 343 56 471 q 133 140 64 222 q 104 278 108 203 q 210 531 100 424 q 461 639 317 632 q 467 638 465 639 m 418 379 q 461 361 443 379 q 479 318 479 343 q 461 274 479 292 q 418 256 443 256 q 374 274 392 256 q 356 318 356 292 q 374 361 356 343 q 418 379 392 379 z "},"P":{"ha":854,"x_min":1,"x_max":432,"o":"m 136 568 q 288 544 224 563 q 251 599 281 576 q 51 644 192 640 l 51 586 l 51 571 q 135 568 82 571 l 136 568 m 154 235 l 154 225 l 154 -12 l 154 -90 l 154 -111 l 154 -119 l 104 -119 l 104 -111 l 104 -90 l 104 -12 l 104 225 l 104 232 q 51 231 88 231 l 51 108 l 51 31 l 51 8 l 51 0 l 1 0 l 1 8 l 1 31 l 1 108 l 1 347 l 1 586 l 1 664 l 1 686 l 1 694 l 33 694 q 281 639 206 693 q 340 525 338 596 q 348 522 343 524 q 356 518 353 519 q 432 400 432 474 q 356 285 435 329 q 154 235 286 247 m 104 519 q 51 521 88 521 l 51 347 l 51 281 q 104 282 88 281 l 104 461 l 104 519 m 154 411 q 258 454 224 421 q 285 493 278 469 q 154 517 240 508 l 154 461 l 154 411 m 154 361 l 154 285 q 332 329 272 294 q 374 367 361 346 q 382 399 385 382 q 374 436 382 419 q 332 474 361 457 q 293 417 318 440 q 154 361 243 371 z "},"Q":{"ha":1249,"x_min":10,"x_max":828,"o":"m 651 32 l 615 68 q 394 -21 524 -17 q 472 -29 432 -29 q 651 32 575 -29 m 688 67 q 693 74 689 69 q 699 79 697 78 q 772 281 775 171 q 722 443 768 371 q 738 346 736 394 q 651 107 742 218 q 650 106 651 106 l 688 67 m 467 638 l 481 638 q 374 657 429 657 q 368 658 369 657 q 144 565 232 656 q 60 343 56 474 q 133 140 64 222 q 104 278 108 203 q 210 531 100 424 q 461 639 317 632 q 467 638 465 639 m 722 31 q 742 10 736 17 q 779 -29 764 -12 l 790 -39 l 828 -78 l 758 -78 l 754 -75 q 744 -64 750 -69 l 706 -25 l 686 -4 q 474 -79 596 -79 q 225 11 324 -79 q 72 140 129 53 q 10 340 14 226 q 108 600 4 493 q 372 708 213 707 q 378 707 376 708 q 638 592 529 706 q 769 464 719 546 q 822 283 818 382 q 738 47 825 154 q 730 39 735 44 q 722 31 725 33 m 418 379 q 461 361 443 379 q 479 318 479 343 q 472 289 479 303 l 475 286 q 513 247 490 271 l 615 142 q 688 344 692 239 q 606 551 683 465 q 463 589 542 586 l 458 589 q 244 494 332 581 q 154 279 150 403 q 253 53 160 140 q 383 29 318 28 q 581 104 499 29 l 476 213 q 439 251 454 235 l 432 258 q 418 256 424 256 q 374 274 392 256 q 356 318 356 292 q 374 361 356 343 q 418 379 392 379 z "},"R":{"ha":951,"x_min":1,"x_max":531,"o":"m 154 281 q 353 326 293 282 q 390 399 393 356 q 353 475 390 447 q 336 486 342 483 q 282 410 322 439 q 154 363 233 375 l 154 281 m 154 521 l 154 471 l 154 413 q 251 450 218 425 q 289 504 282 471 q 154 521 236 519 m 133 572 q 283 557 229 569 q 251 599 275 582 q 51 644 192 640 l 51 586 l 51 404 q 104 407 71 404 l 104 471 l 104 544 l 104 564 l 104 571 l 133 572 m 476 -65 q 440 24 458 -22 q 338 261 403 114 q 289 246 307 250 l 304 208 l 344 108 q 376 29 364 63 l 386 7 l 389 0 l 335 0 q 299 89 317 43 q 239 236 242 228 q 154 231 210 233 l 154 31 l 154 -42 l 154 -62 l 154 -69 l 104 -69 l 104 -62 l 104 -42 l 104 31 l 104 251 l 104 356 q 78 355 96 356 q 51 354 61 354 l 51 347 l 51 108 l 51 31 l 51 8 l 51 0 l 1 0 l 1 8 l 1 31 l 1 108 l 1 347 l 1 586 l 1 664 l 1 686 l 1 694 l 33 694 q 281 639 206 693 q 339 540 332 601 q 382 515 363 531 q 440 400 440 475 q 385 289 443 335 l 446 143 l 486 43 q 518 -36 506 -3 q 528 -58 524 -49 l 531 -65 l 476 -65 z "},"S":{"ha":1217,"x_min":-40,"x_max":796,"o":"m 450 36 q 513 67 492 50 q 579 175 571 111 q 560 267 588 218 l 494 267 q 513 157 524 218 q 450 36 501 88 m 299 649 q 226 614 253 635 q 161 504 169 571 q 176 413 153 453 l 249 413 q 233 517 224 457 q 299 649 244 594 m 161 197 q 244 56 165 117 q 335 24 281 28 q 389 53 367 33 q 461 167 450 99 q 439 267 469 221 q 381 265 422 265 l 121 265 q 36 264 71 265 l 11 264 l 3 264 l 3 314 l 11 314 l 35 314 q 121 315 71 315 l 381 315 q 640 317 522 317 l 726 317 l 750 317 l 758 317 l 758 267 l 750 267 l 726 267 l 640 267 l 610 267 q 629 167 636 219 q 543 28 617 83 q 382 -28 479 -21 l 350 -28 q 250 -47 300 -46 q 74 -3 142 -54 q -40 194 -36 81 l 17 196 q 106 40 19 104 q 231 4 153 4 q 222 10 228 7 q 214 15 217 14 q 113 194 117 90 l 161 197 m 579 481 q 494 628 575 567 q 411 657 461 650 q 357 628 381 647 q 286 508 297 582 q 306 413 278 457 l 379 413 q 639 414 521 413 l 725 414 l 749 414 l 757 414 l 757 364 l 749 364 l 725 364 l 639 364 q 379 363 521 363 q 119 361 238 363 l 35 361 l 11 361 l 3 361 l 1 411 l 10 411 l 35 411 l 119 411 l 121 411 q 111 511 103 456 q 196 654 124 599 q 356 708 264 704 q 394 710 369 710 q 497 731 449 729 q 678 686 610 738 q 796 485 789 606 l 739 485 q 647 643 735 578 q 510 678 593 681 q 524 668 511 676 q 631 482 626 592 l 579 481 z "},"T":{"ha":1015,"x_min":0,"x_max":594,"o":"m 110 603 l 115 603 l 131 603 l 185 603 l 218 603 l 218 646 l 76 646 l 21 646 l 6 646 l 0 646 l 0 696 l 6 696 l 21 696 l 76 696 l 243 696 l 410 696 l 464 696 l 479 696 l 485 696 l 485 646 l 479 646 l 464 646 l 410 646 l 268 646 l 268 603 l 351 603 l 518 603 l 574 603 l 589 603 l 594 603 l 594 553 l 589 553 l 574 553 l 518 553 l 361 553 l 361 494 l 361 265 l 361 35 l 361 -40 l 361 -62 l 361 -69 l 311 -69 l 311 -62 l 311 -40 l 311 35 l 311 265 l 311 494 l 311 553 l 268 553 l 268 347 l 268 108 l 268 31 l 268 8 l 268 0 l 218 0 l 218 8 l 218 29 l 218 108 l 218 347 l 218 553 l 185 553 l 131 553 l 115 553 l 110 553 l 110 603 z "},"U":{"ha":1028,"x_min":0,"x_max":606,"o":"m 606 626 l 606 621 l 606 608 l 606 560 l 606 415 l 606 271 l 606 222 l 606 210 l 606 204 q 544 10 601 92 q 364 -89 476 -89 q 197 -19 264 -89 q 65 65 117 -3 q 0 268 4 144 l 0 272 l 0 276 l 0 290 l 0 338 l 0 483 l 0 628 l 0 675 l 0 689 l 0 694 l 50 694 l 50 689 l 50 675 l 50 628 l 50 483 l 50 338 l 50 290 l 50 276 l 50 272 l 50 271 q 106 96 54 163 q 144 57 122 74 q 110 211 111 129 l 110 215 l 110 226 l 110 274 l 110 419 l 110 565 l 110 614 l 110 628 l 110 632 l 160 632 l 160 628 l 160 614 l 160 565 l 160 419 l 160 274 l 160 226 l 160 213 l 160 208 q 215 35 164 103 q 219 31 217 33 q 222 26 221 28 q 254 24 244 24 q 394 99 340 24 q 446 264 443 167 l 446 265 l 446 279 l 446 328 l 446 478 l 446 626 l 446 675 l 446 689 l 446 694 l 496 694 l 496 689 l 496 675 l 496 626 l 496 478 l 496 328 l 496 279 l 496 275 l 496 272 l 496 264 l 496 261 q 435 71 492 149 q 289 -24 379 -11 q 364 -39 324 -39 q 504 39 450 -39 q 556 215 556 111 l 556 218 l 556 222 l 556 271 l 556 415 l 556 560 l 556 608 l 556 621 l 556 626 l 606 626 z "},"V":{"ha":1171,"x_min":4,"x_max":749,"o":"m 689 694 q 457 108 500 217 q 439 60 447 82 q 444 46 440 57 q 450 31 449 35 l 461 4 q 467 17 464 8 q 472 29 469 25 l 697 599 l 749 599 q 518 11 561 121 q 488 -68 500 -35 q 483 -80 485 -75 q 479 -87 481 -85 l 463 -132 l 449 -96 l 446 -90 q 438 -68 442 -81 q 404 11 424 -35 q 363 114 372 88 q 360 108 360 111 q 328 29 342 63 l 321 8 l 304 -35 l 289 1 l 286 7 q 278 29 283 15 q 246 108 264 61 q 4 694 128 389 l 58 694 q 128 522 82 636 q 226 284 175 408 q 292 126 278 160 l 303 100 l 313 126 q 335 181 328 165 q 238 415 300 263 q 163 599 176 567 l 218 599 q 255 509 232 565 q 310 374 278 453 q 361 249 343 294 l 538 694 l 590 694 q 389 182 456 353 q 401 152 393 171 q 411 126 408 133 l 636 694 l 689 694 z "},"W":{"ha":1565,"x_min":4,"x_max":1143,"o":"m 389 182 q 401 152 393 171 q 411 126 408 133 q 460 249 421 151 q 519 399 499 347 q 508 427 515 408 q 496 456 500 446 q 389 182 392 190 m 461 4 q 467 17 464 8 q 472 29 469 25 q 569 276 497 96 q 546 333 563 294 q 457 108 478 157 q 439 60 447 82 q 444 46 440 57 q 450 31 449 35 l 461 4 m 658 368 q 643 328 656 360 q 624 278 631 296 q 656 199 633 254 q 685 126 678 144 l 696 100 q 701 113 697 103 q 707 126 704 122 q 729 185 721 161 q 658 368 703 256 m 610 494 q 572 401 597 465 q 596 344 589 363 q 633 436 614 392 q 622 464 631 443 q 610 494 614 485 m 1082 694 q 851 108 894 217 q 840 78 846 93 q 832 60 833 63 q 844 31 840 43 q 849 18 846 28 q 856 4 853 8 l 865 31 l 1092 599 l 1143 599 q 913 11 956 121 q 882 -67 894 -35 q 876 -81 879 -74 l 874 -87 q 865 -110 871 -96 q 857 -132 860 -124 q 843 -96 850 -115 q 840 -89 842 -94 q 831 -68 836 -81 q 799 11 818 -35 q 757 117 792 25 l 753 108 q 722 29 735 63 l 714 8 l 697 -35 l 683 1 l 681 7 q 672 29 676 17 q 639 108 658 61 q 597 211 607 185 q 566 131 585 178 q 536 56 547 85 q 518 11 525 26 q 488 -68 500 -35 q 483 -80 485 -75 q 479 -87 481 -85 l 463 -132 l 449 -96 l 446 -90 q 438 -68 442 -81 q 404 11 424 -35 q 363 114 372 88 q 360 108 360 111 q 328 29 342 63 l 321 8 l 304 -35 l 289 1 l 286 7 q 278 29 283 15 q 246 108 264 61 q 4 694 128 389 l 58 694 q 128 522 82 636 q 226 284 175 408 q 292 126 278 160 l 303 100 l 313 126 q 335 181 328 165 q 238 415 300 263 q 163 599 176 567 l 218 599 q 255 509 232 565 q 310 374 278 453 q 361 249 343 294 q 469 521 403 356 q 397 694 406 675 l 453 694 q 472 647 458 682 q 496 589 486 611 l 538 694 l 590 694 q 522 524 561 619 q 534 495 526 514 q 546 467 542 476 l 636 694 l 689 694 q 632 550 664 633 q 656 493 639 532 l 697 599 l 749 599 q 682 428 719 524 q 756 249 736 294 l 932 694 l 983 694 q 782 182 850 353 q 806 126 804 131 l 1031 696 l 1082 694 z "},"X":{"ha":1032,"x_min":4,"x_max":611,"o":"m 329 350 l 307 385 l 285 347 l 306 313 l 329 350 m 608 694 q 578 647 582 653 l 564 626 q 517 553 544 596 l 389 350 l 529 128 q 576 54 557 85 l 589 33 l 611 0 l 551 0 q 535 26 542 14 q 488 101 515 57 l 360 303 l 336 265 l 424 128 q 471 54 450 85 q 483 33 478 42 l 504 0 l 444 0 q 428 26 436 14 q 381 101 408 57 l 306 219 l 231 101 q 183 26 203 57 l 167 0 l 107 0 q 128 32 125 26 l 142 53 q 189 128 161 85 l 276 265 l 254 300 l 128 101 l 81 26 l 64 0 l 4 0 q 25 32 21 26 l 39 53 l 85 128 l 225 347 l 96 551 q 49 626 68 596 l 35 647 l 4 694 l 64 694 q 90 653 82 665 q 138 579 110 622 l 254 394 l 278 431 l 201 551 q 154 626 174 596 q 142 647 146 639 l 111 694 l 169 694 q 196 653 189 665 l 243 579 l 307 478 l 372 578 q 419 653 399 622 l 446 694 l 504 694 q 474 647 478 653 l 461 626 q 414 551 442 596 l 338 431 l 360 396 l 475 579 q 522 653 503 622 l 549 696 l 608 694 z "},"Y":{"ha":926,"x_min":4,"x_max":504,"o":"m 504 694 q 474 647 478 653 l 461 626 q 414 551 442 596 q 365 475 399 526 q 328 418 331 424 l 328 378 q 329 190 328 293 l 329 4 l 329 -57 l 329 -74 l 329 -81 l 279 -81 l 279 -75 l 279 -57 l 279 4 l 279 190 q 278 340 279 290 l 253 303 q 240 322 250 310 l 240 207 l 240 64 q 241 38 240 50 q 242 18 242 26 l 242 4 l 242 0 l 192 0 l 192 4 l 192 18 q 191 38 192 26 q 190 64 190 50 l 190 207 l 190 349 l 190 394 l 190 401 q 96 551 157 456 q 49 626 68 596 l 35 647 l 4 694 l 64 694 q 90 653 82 665 q 138 579 110 622 l 254 394 l 278 432 q 246 481 271 442 q 201 551 221 521 q 154 626 174 596 q 142 647 146 639 l 111 694 l 169 694 q 196 653 189 665 l 243 579 q 308 478 299 493 l 372 578 q 419 653 399 622 l 446 694 l 504 694 z "},"Z":{"ha":1118,"x_min":-57,"x_max":696,"o":"m -57 597 l -51 597 l -37 597 l 14 597 l 169 597 l 324 597 l 375 597 l 390 597 l 393 597 l 424 644 l 383 644 l 231 644 l 78 644 l 28 644 l 14 644 l 8 644 l 8 694 l 14 694 l 28 694 l 78 694 l 231 694 l 383 694 l 435 694 l 449 694 l 454 694 l 454 693 l 471 719 l 497 761 l 556 761 q 526 714 529 719 l 513 693 q 465 618 493 663 q 322 393 400 515 q 179 168 244 269 q 132 93 151 124 l 115 67 l 56 67 q 76 99 72 93 l 90 119 q 138 194 110 151 q 281 419 203 297 l 361 547 l 324 547 l 169 547 l 14 547 l -37 547 l -51 547 l -57 547 l -57 597 m 638 0 l 632 0 l 618 0 l 569 0 l 419 0 l 271 0 l 221 0 l 210 0 l 189 -33 l 163 -75 l 103 -75 q 133 -28 129 -33 q 146 -7 139 -19 q 193 68 165 25 q 335 294 258 171 l 478 521 q 524 594 504 564 l 542 622 l 600 622 q 579 589 583 596 q 567 568 575 581 q 519 494 547 538 q 378 268 456 392 l 304 151 l 338 151 l 483 151 q 629 153 563 151 l 678 153 l 692 153 l 696 153 l 696 103 l 692 103 l 678 103 l 629 103 q 483 101 563 101 l 338 101 q 289 100 308 101 l 275 100 l 272 100 l 240 50 l 271 50 l 419 50 l 569 50 l 618 50 l 632 50 l 638 50 l 638 0 z "},"[":{"ha":539,"x_min":0,"x_max":117,"o":"m 1 -78 l 0 -78 l 0 -68 l 0 -42 l 0 57 l 0 356 l 0 653 l 0 751 l 0 779 l 0 789 l 50 789 l 60 789 l 99 789 l 113 789 l 117 789 l 117 739 l 113 739 l 99 739 l 60 739 l 50 739 l 50 653 l 50 356 l 50 57 l 50 -29 l 58 -29 l 97 -29 l 111 -29 l 115 -29 l 115 -79 l 111 -79 l 97 -79 l 58 -79 l 18 -79 l 6 -79 l 1 -79 l 1 -78 z "},"\\":{"ha":767,"x_min":15,"x_max":344,"o":"m 15 694 l 68 694 q 294 126 251 235 l 344 -1 l 290 0 q 279 29 285 15 q 247 107 267 61 l 15 694 z "},"]":{"ha":539,"x_min":1,"x_max":118,"o":"m 118 789 l 118 779 l 118 751 l 118 653 l 118 354 l 118 57 l 118 -42 l 118 -69 l 118 -79 l 115 -79 l 111 -79 l 97 -79 l 68 -79 l 58 -79 l 18 -79 l 6 -79 l 1 -79 l 1 -29 l 6 -29 l 18 -29 l 58 -29 l 68 -29 l 68 57 l 68 354 l 68 653 l 68 739 l 60 739 l 19 739 l 7 739 l 3 739 l 3 789 l 7 789 l 19 789 l 60 789 l 68 789 l 99 789 l 113 789 l 117 789 l 118 789 z "},"^":{"ha":743,"x_min":156,"x_max":321,"o":"m 267 694 l 321 561 l 265 561 q 239 628 261 572 l 211 561 l 156 561 q 211 694 157 564 l 239 694 l 267 694 z "},"_":{"ha":865,"x_min":-1,"x_max":444,"o":"m -1 -44 l 4 -44 l 18 -44 l 68 -44 l 222 -44 l 375 -44 l 425 -44 l 439 -44 l 444 -44 l 444 -94 l 439 -94 l 425 -94 l 375 -94 l 222 -94 l 68 -94 l 18 -94 l 4 -94 l -1 -94 l -1 -44 z "},"`":{"ha":535,"x_min":4,"x_max":114,"o":"m 58 694 l 114 561 l 58 561 q 4 694 50 581 l 58 694 z "},"a":{"ha":1125,"x_min":-15,"x_max":703,"o":"m 260 360 q 314 496 292 438 q 285 567 301 525 q 274 593 278 583 l 263 568 l 181 360 l 260 360 m 314 360 l 356 360 l 369 360 l 342 429 q 328 394 336 417 q 314 360 319 372 m 294 310 q 274 255 288 290 q 256 208 260 219 l 276 208 l 408 208 l 540 208 l 564 208 q 543 259 557 225 q 522 310 529 293 l 518 310 l 488 310 l 396 310 l 303 310 l 294 310 m 407 593 l 396 568 q 383 533 392 558 q 368 496 374 508 q 392 438 372 486 q 424 360 411 390 l 488 360 l 501 360 q 417 567 461 463 q 413 577 415 571 q 410 587 411 583 q 407 593 408 590 m 517 0 q 481 89 499 43 q 463 131 474 107 q 451 158 453 156 l 450 158 l 407 158 l 275 158 l 233 158 q 221 125 231 149 q 207 90 211 101 l 175 11 l 171 0 l 117 0 l 121 7 q 129 29 124 17 q 142 63 133 42 q 160 108 150 83 q 179 158 176 150 l 143 158 l 101 158 q 90 131 100 154 q 74 90 81 107 l 43 11 l 39 0 l -15 0 l -12 7 q -4 29 -8 17 q 28 108 10 63 l 67 210 q 83 208 78 210 l 88 208 l 100 208 l 143 208 l 199 208 q 239 310 217 253 l 169 310 l 107 311 l 124 351 l 217 586 q 247 665 235 632 q 256 685 250 671 l 272 729 l 288 693 q 289 688 288 690 q 299 665 293 678 q 331 586 313 632 q 340 563 336 575 q 346 576 342 568 q 350 586 350 585 q 381 665 368 632 q 389 685 383 671 l 406 729 l 419 693 l 422 688 q 431 665 426 678 q 464 586 444 632 q 534 416 476 557 q 618 208 592 275 q 626 189 619 207 q 658 108 642 150 q 692 29 678 63 l 700 7 l 703 0 l 649 0 q 613 89 632 43 q 597 127 606 104 q 585 158 588 150 l 583 158 l 539 158 l 506 158 q 515 136 508 153 q 526 108 522 119 q 558 29 546 63 l 568 7 l 571 0 l 517 0 z "},"b":{"ha":908,"x_min":1,"x_max":486,"o":"m 158 608 q 376 554 293 604 q 369 574 375 558 q 331 615 357 599 q 158 644 282 640 l 158 629 l 158 608 m 158 558 l 158 544 l 158 404 q 339 450 282 408 q 374 496 363 468 q 158 558 301 553 m 406 236 q 424 272 418 254 q 436 349 436 308 q 408 454 436 411 q 368 410 392 426 q 282 371 332 382 q 363 314 331 351 q 406 236 390 282 m 367 142 q 160 106 299 110 l 160 31 l 160 -36 q 325 31 272 -28 q 367 142 363 74 m 363 196 q 325 281 353 250 q 158 347 272 339 l 158 288 q 159 208 158 250 q 160 156 160 167 q 363 196 306 161 m 53 154 l 110 154 q 109 208 110 165 q 108 288 108 250 l 108 544 l 108 629 q 107 644 107 635 l 51 644 l 51 586 l 51 347 q 53 154 51 221 m 53 104 l 53 31 l 53 8 l 53 0 l 3 0 l 3 8 l 3 31 l 3 108 q 1 347 1 218 l 1 586 l 1 665 l 1 688 l 1 694 l 51 694 q 354 658 283 699 q 415 594 396 635 q 429 529 429 565 q 428 521 429 526 q 428 513 428 515 q 486 349 486 449 q 471 254 486 296 q 415 172 451 204 q 417 154 417 167 q 363 -3 417 60 q 126 -87 290 -86 l 110 -87 l 110 -78 l 110 -54 l 110 31 l 110 104 l 53 104 z "},"c":{"ha":1001,"x_min":10,"x_max":579,"o":"m 329 32 q 206 160 251 79 q 160 342 161 240 q 202 519 158 439 q 324 647 246 600 q 131 546 204 631 q 60 342 58 461 q 136 133 61 218 q 329 32 211 49 m 536 28 l 579 29 l 578 -22 l 382 -22 l 382 -21 q 117 81 222 -21 q 10 342 13 182 q 110 597 7 494 q 371 700 213 699 l 372 700 l 574 701 l 575 701 l 574 650 l 538 650 l 518 650 q 294 561 381 649 q 210 342 207 474 q 302 115 211 203 q 533 29 393 28 q 536 28 535 29 z "},"d":{"ha":1024,"x_min":97,"x_max":601,"o":"m 251 728 l 251 679 q 418 588 349 656 q 519 346 517 490 q 518 308 519 321 q 557 449 557 374 q 476 633 557 556 q 251 728 388 722 m 124 694 q 201 690 164 694 l 201 740 l 201 765 l 201 774 l 225 774 l 226 774 q 508 667 400 775 q 601 449 604 569 q 506 219 601 315 q 496 211 501 217 q 428 97 474 150 q 233 0 342 4 l 232 0 l 231 0 l 206 0 l 206 8 q 204 33 206 18 l 204 121 q 203 386 204 242 q 201 639 203 532 q 147 644 183 642 q 149 575 147 617 l 149 314 q 150 53 150 171 l 150 -33 l 150 -58 l 150 -67 l 100 -67 l 100 -58 l 100 -33 l 100 53 q 99 314 100 171 l 99 575 q 97 661 97 626 l 97 686 l 97 694 l 121 694 l 124 694 m 354 476 l 354 422 l 354 303 q 356 183 356 238 l 356 181 q 450 231 408 196 q 469 344 469 286 q 383 551 467 469 q 251 628 329 606 q 253 388 253 532 q 254 121 254 242 l 254 53 q 390 132 331 65 q 407 153 403 144 q 347 133 376 138 q 318 128 339 131 l 306 126 l 306 132 l 306 143 l 306 183 q 304 303 306 238 l 304 422 l 304 461 l 303 472 l 303 476 l 354 476 z "},"e":{"ha":1015,"x_min":0,"x_max":593,"o":"m 92 50 l 92 100 l 92 225 l 92 267 l 92 278 l 63 278 l 50 278 l 50 250 l 50 147 l 50 50 l 81 50 l 92 50 m 92 644 l 63 644 l 50 644 l 50 551 l 50 457 l 81 457 l 92 457 l 92 492 l 92 606 l 92 643 l 92 644 m 0 694 l 4 694 l 17 694 l 63 694 l 199 694 l 335 694 l 379 694 l 392 694 l 396 694 l 396 644 l 392 644 l 379 644 l 335 644 l 199 644 l 143 644 l 143 614 l 172 614 l 343 614 l 513 614 l 568 614 l 583 614 l 589 614 l 589 564 l 583 564 l 568 564 l 513 564 l 343 564 l 172 564 l 143 564 l 143 551 q 142 501 143 525 q 142 457 142 476 l 257 457 l 433 457 l 492 457 l 508 457 l 514 457 l 514 407 l 508 407 l 492 407 l 433 407 l 257 407 l 142 407 l 142 379 l 142 342 l 142 331 l 142 328 l 199 328 l 336 328 l 381 328 l 394 328 l 399 328 l 399 278 l 394 278 l 381 278 l 336 278 l 199 278 l 143 278 l 143 250 l 143 244 l 172 244 l 344 244 l 515 244 l 572 244 l 588 244 l 593 244 l 593 194 l 588 194 l 572 194 l 515 194 l 344 194 l 172 194 l 143 194 l 143 149 l 143 50 l 254 50 l 429 50 l 486 50 l 503 50 l 508 50 l 508 0 l 503 0 l 486 0 l 429 0 l 254 0 l 142 0 l 142 -25 l 142 -36 l 171 -36 q 342 -37 249 -36 l 513 -37 l 568 -37 l 585 -37 l 590 -37 l 590 -87 l 585 -87 l 568 -87 l 513 -87 l 342 -87 q 171 -86 249 -86 l 114 -86 l 99 -86 l 93 -86 l 93 -82 l 92 -82 l 92 -78 l 92 -65 l 92 -25 l 92 0 l 81 0 l 50 0 l 22 0 l 7 0 l 0 0 l 0 13 l 0 46 l 0 147 l 0 250 l 0 278 l 0 283 l 0 296 l 0 328 l 4 328 l 17 328 l 63 328 l 92 328 l 92 331 l 92 342 l 92 379 l 92 407 l 81 407 l 22 407 l 6 407 l 0 407 l 0 408 l 0 421 l 0 453 l 0 457 l 0 551 l 0 644 l 0 649 l 0 682 l 0 694 z "},"f":{"ha":1007,"x_min":0,"x_max":586,"o":"m 92 644 l 50 644 l 50 551 l 50 457 l 65 457 l 92 457 l 92 492 l 92 606 l 92 643 l 92 644 m 0 694 l 7 694 l 25 694 l 92 694 l 293 694 l 494 694 l 561 694 l 579 694 l 586 694 l 586 644 l 579 644 l 561 644 l 494 644 l 293 644 l 143 644 l 143 614 l 163 614 l 304 614 l 447 614 l 494 614 l 507 614 l 511 614 l 511 564 l 507 564 l 494 564 l 447 564 l 304 564 l 163 564 l 143 564 l 143 551 q 142 501 143 525 q 142 458 142 478 l 157 458 l 300 458 l 443 458 l 490 458 l 504 458 l 508 458 l 508 408 l 504 408 l 490 408 l 443 408 l 417 408 l 417 407 l 411 407 l 399 407 l 351 407 l 208 407 l 142 407 l 142 379 l 142 342 l 142 331 l 142 328 l 199 328 l 336 328 l 381 328 l 394 328 l 399 328 l 399 278 l 394 278 l 381 278 l 336 278 l 199 278 l 143 278 l 143 250 l 143 149 l 143 47 l 143 13 l 143 0 l 142 0 l 142 -24 l 142 -65 l 142 -78 l 142 -82 l 92 -82 l 92 -78 l 92 -65 l 92 -24 l 92 104 l 92 232 l 92 274 l 92 278 l 63 278 l 50 278 l 50 250 l 50 147 l 50 46 l 50 13 l 50 0 l 0 0 l 0 13 l 0 46 l 0 147 l 0 250 l 0 278 l 0 283 l 0 296 l 0 328 l 4 328 l 17 328 l 63 328 l 92 328 l 92 331 l 92 342 l 92 379 l 92 407 l 65 407 l 18 407 l 4 407 l 0 407 l 0 408 l 0 421 l 0 453 l 0 457 l 0 551 l 0 644 l 0 649 l 0 682 l 0 694 z "},"g":{"ha":1308,"x_min":10,"x_max":888,"o":"m 324 647 q 131 546 204 631 q 60 342 58 461 q 136 133 61 218 q 329 32 211 49 q 206 160 251 79 q 160 342 161 240 q 202 519 158 439 q 324 647 246 600 m 721 208 q 590 32 685 93 q 763 117 699 47 q 817 208 797 153 l 774 208 l 721 208 m 732 258 l 774 258 l 831 258 q 838 325 835 279 l 821 325 l 738 325 q 732 258 738 303 m 354 260 l 360 260 l 375 260 l 432 260 q 603 258 510 258 l 681 258 q 688 325 688 293 l 675 325 q 529 326 596 325 l 482 326 l 468 326 l 464 326 l 464 376 l 468 376 l 482 376 l 529 376 q 675 375 596 375 l 821 375 l 868 375 l 882 375 l 888 375 l 888 350 l 888 346 q 796 78 890 178 q 533 -21 701 -21 q 460 -15 492 -21 q 383 -21 428 -21 q 118 80 224 -22 q 10 342 13 182 q 110 597 7 494 q 371 700 213 699 l 372 700 l 574 701 l 575 701 l 574 650 l 538 650 l 518 650 q 294 561 381 649 q 210 342 207 474 q 280 140 211 222 q 460 35 349 57 q 614 117 554 53 q 668 208 649 153 l 603 208 q 432 210 510 208 l 375 210 l 360 210 l 354 210 l 354 260 z "},"h":{"ha":1043,"x_min":29,"x_max":622,"o":"m 125 217 l 131 217 l 147 217 l 203 217 l 374 217 l 476 217 l 476 250 l 476 279 l 449 279 l 278 279 l 107 279 l 79 279 l 79 250 l 79 149 q 81 47 81 93 l 81 14 l 81 1 l 31 1 l 31 14 l 31 47 q 29 149 31 93 l 29 250 l 29 279 l 29 285 l 29 297 l 29 329 l 35 329 l 51 329 l 107 329 l 125 329 l 125 340 l 125 346 l 125 408 l 107 408 l 51 408 l 35 408 l 29 408 l 29 410 l 29 422 l 29 454 l 29 458 l 29 551 l 29 650 l 29 683 l 29 694 l 79 694 l 79 683 l 79 650 l 79 551 l 79 458 l 107 458 l 125 458 l 125 538 l 125 569 l 125 582 l 175 582 l 175 569 l 175 538 l 175 458 l 275 458 l 443 458 l 476 458 l 476 551 l 476 650 l 476 683 l 476 696 l 526 696 l 526 683 l 526 650 l 526 551 l 526 454 l 526 421 l 526 408 l 521 408 l 515 408 l 499 408 l 443 408 l 275 408 l 175 408 l 175 346 l 203 346 l 371 346 l 539 346 l 572 346 l 572 439 l 572 538 l 572 569 l 572 582 l 622 582 l 622 569 l 622 538 l 622 439 l 622 340 l 622 308 l 622 296 l 617 296 l 611 296 l 594 296 l 539 296 l 526 296 l 526 283 l 526 250 l 526 217 l 544 217 l 600 217 l 617 217 l 622 217 l 622 183 l 622 171 l 622 138 l 622 36 l 622 -65 l 622 -99 l 622 -112 l 572 -112 l 572 -99 l 572 -65 l 572 36 l 572 138 l 572 167 l 544 167 l 526 167 l 526 149 l 526 47 l 526 14 l 526 1 l 476 1 l 476 14 l 476 47 l 476 149 l 476 167 l 374 167 l 203 167 l 175 167 l 175 138 l 175 36 q 176 -18 175 7 q 176 -65 176 -43 l 176 -100 l 176 -112 l 126 -112 l 126 -100 l 126 -65 q 126 -18 126 -43 q 125 36 125 7 l 125 138 l 125 167 l 125 171 l 125 183 l 125 217 z "},"i":{"ha":581,"x_min":0,"x_max":160,"o":"m 50 694 l 50 686 l 50 664 l 50 585 l 50 347 l 50 108 l 50 29 l 50 8 l 50 0 l 0 0 l 0 8 l 0 29 l 0 108 l 0 347 l 0 585 l 0 664 l 0 686 l 0 694 l 50 694 m 160 775 l 160 765 l 160 739 l 160 642 q 158 347 160 507 l 158 53 l 158 -44 l 158 -72 l 158 -82 l 108 -82 l 108 -72 l 108 -44 l 108 53 l 108 347 q 110 642 110 507 l 110 739 l 110 765 l 110 775 l 160 775 z "},"j":{"ha":1025,"x_min":0,"x_max":603,"o":"m 157 208 q 213 33 161 101 q 218 26 217 29 q 254 24 243 24 q 394 99 340 24 q 446 264 443 167 l 446 265 l 446 281 l 446 335 l 446 499 l 446 663 l 446 717 l 446 732 l 446 738 l 496 738 l 496 732 l 496 717 l 496 663 l 496 499 l 496 335 l 496 281 l 496 275 l 496 272 l 496 264 l 496 261 q 435 71 492 149 q 288 -24 379 -11 q 361 -37 319 -37 q 501 38 447 -37 q 553 192 546 101 l 553 194 l 553 208 l 553 258 l 553 407 l 553 556 l 553 606 l 553 619 l 553 624 l 603 624 l 603 619 l 603 606 l 603 556 l 603 407 l 603 258 l 603 217 l 603 211 l 603 190 q 542 8 596 83 q 361 -87 474 -87 q 192 -19 260 -87 q 65 65 117 0 q 0 268 4 144 l 0 271 l 0 300 l 50 301 l 50 271 q 106 96 54 163 q 139 61 119 76 q 107 207 110 128 l 107 208 l 107 239 l 157 240 l 157 211 l 157 208 z "},"k":{"ha":849,"x_min":0,"x_max":426,"o":"m 414 693 q 385 646 388 653 l 371 625 l 324 551 l 200 357 l 346 128 q 392 54 372 85 l 406 33 l 426 0 l 367 0 q 350 26 358 14 q 303 101 331 58 l 171 310 l 157 289 l 157 108 l 157 29 l 157 7 l 157 0 l 107 0 l 107 7 l 107 29 l 107 108 l 107 211 l 50 119 l 50 108 l 50 29 l 50 8 l 50 0 l 0 0 l 0 8 l 0 29 l 0 108 l 0 347 l 0 586 l 0 665 l 0 686 l 0 694 l 50 694 l 50 686 l 50 665 l 50 586 l 50 347 l 50 213 q 76 256 57 225 q 107 304 96 286 l 107 347 l 107 586 l 107 665 l 107 686 l 107 694 l 157 694 l 157 686 l 157 665 l 157 586 l 157 383 l 282 578 q 329 651 308 621 l 356 694 l 414 693 z "},"l":{"ha":944,"x_min":0,"x_max":522,"o":"m 157 694 l 157 686 l 157 661 l 157 572 l 157 304 l 157 50 l 207 50 l 349 50 l 396 50 l 408 50 l 414 50 l 414 0 l 408 0 l 396 0 l 349 0 l 207 0 l 157 0 l 157 -36 l 174 -36 q 315 -37 239 -36 l 458 -37 l 504 -37 l 518 -37 l 522 -37 l 522 -87 l 518 -87 l 504 -87 l 458 -87 l 315 -87 q 174 -86 239 -86 l 128 -86 l 114 -86 l 110 -86 l 107 -86 l 107 -76 l 107 -51 l 107 0 l 65 0 l 50 0 l 18 0 l 6 0 l 0 0 l 0 8 l 0 29 l 0 108 l 0 347 l 0 586 l 0 665 l 0 686 l 0 694 l 50 694 l 50 686 l 50 665 l 50 586 l 50 347 l 50 108 l 50 50 l 65 50 l 107 50 l 107 304 l 107 572 l 107 661 l 107 686 l 107 694 l 157 694 z "},"m":{"ha":1101,"x_min":1,"x_max":679,"o":"m 1 518 l 1 590 q 69 529 51 546 l 100 501 l 100 564 l 100 574 l 1 660 l 1 732 q 69 669 51 688 l 163 583 q 257 497 214 536 q 288 468 275 481 l 296 460 l 300 457 l 303 460 l 311 468 q 342 496 324 479 q 436 583 385 536 q 529 669 488 631 l 679 817 l 679 742 l 679 713 l 679 688 l 679 597 l 679 324 l 679 50 l 679 -42 l 679 -67 l 679 -75 l 629 -75 l 629 -67 l 629 -42 l 629 50 l 629 324 l 629 597 q 630 640 629 618 q 631 677 631 663 q 631 693 631 692 q 469 546 613 676 q 376 460 419 499 q 346 431 358 443 l 300 388 q 254 432 258 426 q 222 460 242 443 l 150 528 l 150 489 l 150 454 l 163 442 q 257 356 214 394 q 288 326 275 339 l 296 319 l 299 317 l 303 321 q 311 329 306 325 q 342 358 324 342 q 436 444 385 397 q 529 531 488 492 l 597 593 l 597 539 l 597 533 l 597 518 l 597 464 q 599 299 599 389 q 600 135 600 210 q 601 81 601 103 l 601 65 l 601 60 l 551 58 l 551 64 l 551 79 q 550 133 551 101 q 549 299 550 208 q 547 464 549 389 l 547 478 q 508 443 536 467 q 469 408 481 419 q 376 321 418 361 q 346 293 358 304 l 299 250 q 254 290 258 286 q 222 319 242 301 l 149 386 l 149 264 l 149 39 l 149 -35 l 149 -56 l 149 -62 l 99 -62 l 99 -56 l 99 -35 l 99 39 l 99 264 q 100 432 99 381 q 75 454 92 440 q 51 475 58 468 l 51 469 l 51 278 l 51 85 l 51 22 l 51 4 l 51 -3 l 1 -3 l 1 4 l 1 22 l 1 85 l 1 278 l 1 469 l 1 518 z "},"n":{"ha":940,"x_min":0,"x_max":518,"o":"m 0 568 l 44 521 q 58 504 50 514 q 108 449 79 482 q 260 281 176 372 q 410 113 342 189 q 460 57 439 79 q 474 42 468 47 l 514 0 l 443 0 l 436 8 q 422 24 431 14 q 372 79 401 46 q 222 247 304 156 l 167 310 l 167 304 l 167 144 l 167 -14 l 167 -65 l 167 -81 l 167 -86 l 117 -86 l 117 -81 l 117 -65 l 117 -14 l 117 144 l 117 304 l 117 356 l 117 365 l 71 415 l 50 439 l 50 419 l 50 249 l 50 79 l 50 22 l 50 7 l 50 1 l 0 1 l 0 7 l 0 22 l 0 79 l 0 249 l 0 419 l 0 475 l 0 492 l 0 497 l 0 568 m 518 694 l 518 689 l 518 674 l 518 619 l 518 456 l 518 292 l 518 238 l 518 222 l 518 147 l 518 88 l 436 179 q 422 194 431 185 l 374 250 q 222 418 304 326 q 71 588 140 511 q 21 643 42 619 q 7 658 13 651 l 0 667 l 0 739 l 44 692 q 58 676 50 685 q 108 621 79 653 q 260 451 176 544 l 361 339 l 361 392 l 361 553 l 361 715 l 361 768 l 361 783 l 361 789 l 411 789 l 411 783 l 411 768 l 411 715 l 411 553 l 411 392 l 411 339 l 411 324 l 411 283 q 460 228 439 251 l 468 219 l 468 222 l 468 238 l 468 292 l 468 456 l 468 619 l 468 674 l 468 689 l 468 694 l 518 694 z "},"o":{"ha":1317,"x_min":10,"x_max":894,"o":"m 344 31 q 218 158 265 76 q 167 342 171 240 q 272 597 163 490 q 351 656 308 633 q 150 561 233 643 q 60 343 56 469 q 143 129 64 215 q 344 31 222 43 m 456 646 q 308 561 369 622 q 217 343 213 469 q 288 145 221 228 q 460 39 354 63 q 613 139 550 61 q 688 344 692 233 q 619 535 685 453 q 456 646 554 618 m 567 31 q 769 139 692 42 q 844 346 849 236 q 758 557 840 469 q 557 656 676 644 q 686 526 638 608 q 738 346 735 444 q 651 107 742 218 q 567 31 614 61 m 535 707 q 785 601 681 704 q 894 347 890 497 q 808 108 899 219 q 540 -21 704 -21 q 461 -12 499 -21 q 383 -21 424 -21 q 121 80 226 -22 q 10 340 15 182 q 115 597 6 490 q 371 708 219 700 q 378 707 375 708 q 456 697 411 707 q 528 708 494 707 q 535 707 533 708 z "},"p":{"ha":863,"x_min":1,"x_max":440,"o":"m 154 231 l 154 226 l 154 -11 l 154 -90 l 154 -111 l 154 -119 l 104 -119 l 104 -111 l 104 -90 l 104 -11 l 104 226 l 104 356 q 78 355 96 356 q 51 354 61 354 l 51 347 l 51 108 l 51 31 l 51 8 l 51 0 l 1 0 l 1 8 l 1 31 l 1 108 l 1 347 l 1 586 l 1 664 l 1 686 l 1 694 l 33 694 q 281 639 206 693 q 339 540 332 601 q 382 515 363 531 q 440 400 440 475 q 382 286 443 331 q 154 231 310 232 m 154 281 q 353 326 293 282 q 390 399 393 356 q 353 475 390 447 q 336 486 342 483 q 282 410 322 439 q 154 363 233 375 l 154 281 m 154 521 l 154 464 l 154 413 q 251 450 218 425 q 289 504 282 471 q 154 521 236 519 m 133 572 q 283 557 229 569 q 251 599 275 582 q 51 644 192 640 l 51 586 l 51 404 q 104 407 71 404 l 104 464 l 104 542 l 104 564 l 104 571 q 133 572 124 571 z "},"q":{"ha":1317,"x_min":10,"x_max":894,"o":"m 353 657 q 139 559 222 649 q 60 343 56 469 q 143 129 64 215 q 344 31 222 43 q 218 158 265 76 q 167 342 171 240 q 272 597 163 490 q 353 657 308 632 m 378 707 q 456 697 411 707 q 528 708 494 707 q 535 707 533 708 q 785 601 681 704 q 894 347 890 497 q 808 108 899 219 q 771 68 790 83 l 804 33 l 815 22 q 818 18 818 19 q 818 -17 836 0 q 782 -17 800 -35 q 779 -12 782 -15 q 768 -3 775 -8 q 732 36 753 14 l 731 36 q 540 -21 644 -21 q 461 -12 499 -21 q 383 -21 424 -21 q 121 80 226 -22 q 10 340 15 182 q 108 600 4 493 q 372 708 213 707 q 378 707 376 708 m 657 114 q 651 107 656 111 q 567 31 614 61 q 696 74 639 38 l 657 114 m 685 156 l 736 103 q 769 139 753 118 q 844 346 849 236 q 758 557 840 469 q 557 656 676 644 q 686 526 638 608 q 738 346 735 444 q 685 156 742 253 m 468 410 q 513 392 494 410 q 531 349 531 374 q 525 322 531 336 l 543 301 l 649 193 q 688 344 690 269 q 619 535 685 453 q 456 646 554 618 q 308 561 369 622 q 217 343 213 469 q 288 145 221 228 q 460 39 354 63 q 613 139 550 61 q 621 150 615 142 l 619 151 q 507 267 558 215 l 486 289 q 468 286 475 286 q 425 304 443 286 q 407 349 407 322 q 425 392 407 374 q 468 410 443 410 z "},"r":{"ha":951,"x_min":1,"x_max":531,"o":"m 283 557 q 251 599 275 582 q 51 644 192 640 l 51 586 l 51 347 l 51 275 q 78 276 61 275 q 104 276 96 276 l 104 471 l 104 544 l 104 564 l 104 571 l 133 572 q 283 557 229 569 m 289 504 q 154 521 236 519 l 154 471 l 154 419 q 265 458 232 428 q 289 504 285 475 m 336 486 q 299 421 328 446 q 154 369 251 378 l 154 281 q 306 315 247 292 q 390 401 388 350 q 354 475 393 449 q 336 486 343 483 m 476 -65 q 440 24 458 -22 q 332 272 399 125 q 328 272 331 272 q 325 269 326 271 q 285 256 313 264 l 304 208 l 344 108 q 376 29 364 63 l 386 7 l 389 0 l 335 0 q 299 89 317 43 q 236 243 278 139 q 154 231 199 235 l 154 31 l 154 -42 l 154 -62 l 154 -69 l 104 -69 l 104 -62 l 104 -42 l 104 31 l 104 226 q 51 225 88 225 l 51 108 l 51 31 l 51 8 l 51 0 l 1 0 l 1 8 l 1 31 l 1 108 l 1 347 l 1 586 l 1 664 l 1 686 l 1 694 l 33 694 q 281 639 206 693 q 339 540 332 601 q 383 515 365 529 q 440 399 444 471 q 381 300 439 343 l 446 143 l 486 43 q 518 -36 506 -3 q 528 -58 524 -49 l 531 -65 l 476 -65 z "},"s":{"ha":1218,"x_min":-37,"x_max":797,"o":"m 740 481 q 647 643 736 576 q 510 678 593 681 q 524 668 511 676 q 629 481 625 593 l 579 481 q 494 628 575 567 q 411 657 461 650 q 357 628 381 647 q 286 508 297 582 q 346 365 275 429 l 288 365 q 233 517 219 422 q 299 649 244 594 q 226 614 253 635 q 161 504 169 571 q 213 365 150 421 l 154 364 q 117 423 129 383 q 111 511 104 463 q 196 654 124 599 q 356 708 264 704 q 394 710 369 710 q 497 731 449 729 q 678 686 610 738 q 797 482 790 604 l 740 481 m 15 199 q 106 40 18 106 q 231 4 153 4 q 222 10 228 7 q 214 15 217 14 q 110 201 114 93 l 161 201 q 244 56 163 119 q 335 24 281 28 q 389 53 367 33 q 461 167 450 99 q 400 313 474 244 l 457 313 q 513 157 528 242 q 450 36 501 88 q 513 67 492 50 q 579 175 571 111 q 524 314 592 246 l 576 314 q 618 251 600 292 q 629 167 636 210 q 543 28 617 83 q 382 -28 479 -21 l 350 -28 q 250 -47 300 -46 q 74 -3 142 -54 q -37 199 -33 79 l 15 199 z "},"t":{"ha":1015,"x_min":0,"x_max":594,"o":"m 110 603 l 115 603 l 131 603 l 185 603 l 218 603 l 218 646 l 76 646 l 21 646 l 6 646 l 0 646 l 0 696 l 6 696 l 21 696 l 76 696 l 243 696 l 410 696 l 464 696 l 479 696 l 485 696 l 485 646 l 479 646 l 464 646 l 410 646 l 268 646 l 268 603 l 351 603 l 518 603 l 574 603 l 589 603 l 594 603 l 594 553 l 589 553 l 574 553 l 518 553 l 361 553 l 361 494 l 361 265 l 361 35 l 361 -40 l 361 -62 l 361 -69 l 311 -69 l 311 -62 l 311 -40 l 311 35 l 311 265 l 311 494 l 311 553 l 268 553 l 268 347 l 268 108 l 268 31 l 268 8 l 268 0 l 218 0 l 218 8 l 218 29 l 218 108 l 218 347 l 218 553 l 185 553 l 131 553 l 115 553 l 110 553 l 110 603 z "},"u":{"ha":1028,"x_min":0,"x_max":606,"o":"m 606 626 l 606 621 l 606 608 l 606 560 l 606 415 l 606 271 l 606 222 l 606 210 l 606 204 q 544 10 601 92 q 364 -89 476 -89 q 197 -19 264 -89 q 65 65 117 -3 q 0 268 4 144 l 0 272 l 0 276 l 0 290 l 0 338 l 0 483 l 0 628 l 0 675 l 0 689 l 0 694 l 50 694 l 50 689 l 50 675 l 50 628 l 50 483 l 50 338 l 50 290 l 50 276 l 50 272 l 50 271 q 106 96 54 163 q 144 57 122 74 q 110 211 111 129 l 110 215 l 110 226 l 110 274 l 110 419 l 110 565 l 110 614 l 110 628 l 110 632 l 160 632 l 160 628 l 160 614 l 160 565 l 160 419 l 160 274 l 160 226 l 160 213 l 160 208 q 215 35 164 103 q 219 31 217 33 q 222 26 221 28 q 254 24 244 24 q 394 99 340 24 q 446 264 443 167 l 446 265 l 446 279 l 446 328 l 446 478 l 446 626 l 446 675 l 446 689 l 446 694 l 496 694 l 496 689 l 496 675 l 496 626 l 496 478 l 496 328 l 496 279 l 496 275 l 496 272 l 496 264 l 496 261 q 435 71 492 149 q 289 -24 379 -11 q 364 -39 324 -39 q 504 39 450 -39 q 556 215 556 111 l 556 218 l 556 222 l 556 271 l 556 415 l 556 560 l 556 608 l 556 621 l 556 626 l 606 626 z "},"v":{"ha":1122,"x_min":4,"x_max":701,"o":"m 58 694 q 128 522 82 636 q 226 284 175 408 q 292 126 278 160 l 303 100 l 313 126 q 317 138 314 132 q 324 154 319 144 q 331 169 328 164 q 114 693 176 544 l 169 693 q 357 238 239 522 l 538 694 l 590 694 q 383 171 450 338 q 403 126 393 147 l 413 99 q 417 110 414 101 q 424 125 421 119 l 649 693 l 701 693 q 469 107 513 215 q 439 28 451 61 q 433 15 436 21 q 431 8 431 10 l 414 -36 l 400 0 l 397 6 q 389 28 394 15 l 357 103 l 328 29 l 321 8 l 304 -35 l 289 1 l 286 7 q 278 29 283 15 q 246 108 264 61 q 4 694 128 389 l 58 694 z "},"w":{"ha":1467,"x_min":4,"x_max":1044,"o":"m 528 390 q 542 424 533 401 q 556 458 550 447 q 525 531 547 479 q 499 461 508 486 l 528 390 m 647 101 l 657 128 q 665 149 660 133 q 674 171 671 164 q 582 393 639 258 q 568 354 578 379 q 556 324 558 329 q 636 128 621 161 l 647 101 m 413 99 q 417 110 414 101 q 424 125 421 119 q 441 170 429 140 q 471 244 453 200 q 501 322 489 289 q 472 394 482 369 q 426 280 457 357 q 383 171 396 203 q 403 126 393 147 l 413 99 m 58 694 q 128 522 82 636 q 226 284 175 408 q 292 126 278 160 l 303 100 l 313 126 q 317 138 314 132 q 324 154 319 144 q 331 169 328 164 q 114 693 176 544 l 169 693 q 357 238 239 522 q 399 344 368 268 q 444 460 429 419 q 349 696 372 633 l 403 696 q 432 624 408 682 q 471 528 456 565 q 499 596 475 536 q 475 653 489 619 q 458 694 461 686 l 513 694 q 525 664 521 675 l 538 694 l 590 694 q 553 599 575 656 q 567 562 557 586 q 582 526 578 538 l 649 693 l 701 693 q 610 461 658 586 q 658 343 626 419 q 700 238 689 267 l 882 696 l 935 696 q 728 171 793 339 q 746 126 744 132 l 757 100 q 763 113 758 104 q 768 126 767 122 l 993 694 l 1044 694 q 814 108 857 217 q 783 29 796 63 q 775 8 778 17 l 758 -35 l 744 0 q 743 3 743 1 q 742 7 742 6 q 732 29 738 15 q 701 104 719 61 q 687 66 694 85 q 672 31 679 47 l 664 10 l 649 -35 l 633 1 q 632 4 633 3 q 631 8 631 6 q 622 31 628 17 q 589 108 608 63 q 563 174 583 124 q 529 256 542 224 q 506 197 519 231 q 484 142 493 164 q 469 107 475 119 q 439 28 451 61 q 433 15 436 21 q 431 8 431 10 l 414 -36 l 400 0 l 397 6 q 389 28 394 15 l 357 103 l 328 29 l 321 8 l 304 -35 l 289 1 l 286 7 q 278 29 283 15 q 246 108 264 61 q 4 694 128 389 l 58 694 z "},"x":{"ha":1032,"x_min":4,"x_max":611,"o":"m 111 694 l 169 694 q 196 653 189 665 l 243 579 l 307 478 l 372 578 q 419 653 399 622 l 446 694 l 504 694 q 474 647 478 653 l 461 626 q 414 551 442 596 l 338 431 l 386 353 l 529 128 q 576 54 557 85 l 589 33 l 611 0 l 551 0 q 535 26 542 14 q 488 101 515 57 q 344 326 422 204 l 307 385 l 285 347 l 424 128 q 471 54 450 85 q 483 33 478 42 l 504 0 l 444 0 q 428 26 436 14 q 381 101 408 57 l 254 300 l 128 101 l 81 26 l 64 0 l 4 0 q 25 32 21 26 l 39 53 l 85 128 l 225 347 l 96 551 q 49 626 68 596 l 35 647 l 4 694 l 64 694 q 90 653 82 665 q 138 579 110 622 l 254 394 l 278 431 l 201 551 q 154 626 174 596 q 142 647 146 639 l 111 694 z "},"y":{"ha":926,"x_min":4,"x_max":504,"o":"m 504 694 q 474 647 478 653 l 461 626 q 414 551 442 596 q 365 475 399 526 q 328 418 331 424 l 328 390 q 329 231 328 318 l 329 72 l 329 19 l 329 6 l 329 0 l 279 0 l 279 6 l 279 19 l 279 72 l 279 231 q 278 340 279 310 l 253 303 q 240 322 250 310 l 240 167 l 240 -3 q 241 -35 240 -21 q 242 -58 242 -49 l 242 -74 l 242 -79 l 192 -79 l 192 -75 l 192 -58 q 191 -35 192 -49 q 190 -3 190 -21 l 190 167 l 190 336 l 190 392 l 190 401 q 96 551 157 456 q 49 626 68 596 l 35 647 l 4 694 l 64 694 q 90 653 82 665 q 138 579 110 622 l 254 394 l 278 432 q 246 481 271 442 q 201 551 221 521 q 154 626 174 596 q 142 647 146 639 l 111 694 l 169 694 q 196 653 189 665 l 243 579 q 308 478 299 493 l 372 578 q 419 653 399 622 l 446 694 l 504 694 z "},"z":{"ha":1028,"x_min":4,"x_max":606,"o":"m 606 1 l 600 1 l 586 1 l 536 1 l 382 1 q 229 0 299 0 l 179 0 l 168 0 l 165 0 l 160 0 l 108 0 q 139 47 135 42 q 151 68 144 56 l 199 143 q 340 369 264 246 l 483 596 q 529 669 510 639 l 547 696 l 606 697 q 585 664 589 669 q 572 643 581 656 q 525 568 553 613 q 383 343 461 465 q 242 117 306 219 l 200 50 l 229 50 q 382 51 299 50 l 535 51 l 586 51 l 600 51 l 606 51 l 606 1 m 8 694 l 14 694 l 28 694 l 78 694 l 231 694 l 383 694 l 435 694 l 446 694 l 449 694 l 454 694 l 504 694 q 474 647 478 653 l 461 626 q 414 551 442 596 q 271 326 349 449 l 128 101 l 81 26 l 64 0 l 4 0 q 25 32 21 26 l 39 53 l 85 128 q 229 353 150 231 q 372 578 307 476 l 414 644 l 383 644 l 231 644 l 78 644 l 28 644 l 14 644 l 8 644 l 8 694 z "},"{":{"ha":696,"x_min":58,"x_max":275,"o":"m 275 739 q 228 718 249 736 q 201 651 201 694 l 201 635 q 200 571 201 589 q 183 431 197 471 q 132 364 169 394 q 124 358 129 361 q 115 353 118 356 q 133 339 126 344 q 183 272 169 310 q 197 204 194 244 q 199 129 200 160 l 199 107 q 197 40 197 72 q 224 -25 199 -3 q 274 -44 246 -44 l 274 -90 q 193 -60 225 -90 q 151 39 153 -22 q 153 108 151 72 l 153 131 q 140 256 154 219 q 104 304 129 283 q 72 325 90 315 q 67 326 71 325 q 63 329 64 328 q 58 331 61 331 l 58 374 q 61 375 61 374 l 72 381 q 103 400 89 390 q 140 447 133 425 q 154 571 154 486 q 156 633 156 589 l 156 651 q 197 751 156 714 q 275 785 231 782 l 275 739 z "},"|":{"ha":583,"x_min":111,"x_max":163,"o":"m 163 711 l 163 703 l 163 681 l 163 600 l 163 356 q 161 111 161 222 l 161 31 l 161 8 l 161 0 l 111 0 l 111 8 l 111 31 l 111 111 q 113 356 111 222 l 113 600 l 113 681 l 113 703 l 113 711 l 163 711 z "},"}":{"ha":700,"x_min":58,"x_max":278,"o":"m 58 785 q 142 751 106 785 q 179 651 179 717 l 179 633 q 181 571 179 589 q 194 447 181 486 q 232 400 201 425 q 264 381 260 383 q 275 375 269 376 q 278 374 275 374 l 278 331 q 274 329 275 331 q 264 324 265 325 q 232 304 242 313 q 194 256 206 283 q 182 131 181 219 l 182 108 q 183 39 183 72 q 142 -60 182 -22 q 60 -90 110 -90 l 60 -44 q 111 -25 89 -44 q 138 40 136 -3 q 136 107 138 72 l 136 129 q 138 204 135 161 q 151 272 139 239 q 203 339 165 310 q 221 353 204 340 q 204 364 215 356 q 151 431 165 394 q 135 571 138 471 q 133 635 133 589 l 133 651 q 110 718 133 694 q 60 739 89 739 l 58 785 z "},"~":{"ha":1097,"x_min":78,"x_max":676,"o":"m 78 253 q 144 361 78 308 q 288 400 214 415 q 349 378 318 394 q 399 344 356 374 q 406 340 403 340 l 411 335 q 458 306 444 313 q 506 293 483 293 q 592 331 551 293 q 631 401 631 365 l 676 403 q 623 296 678 346 q 506 247 568 246 q 439 264 472 249 q 385 299 415 275 q 381 301 383 300 q 378 303 379 303 l 372 307 q 326 338 343 328 q 279 356 297 353 q 172 325 226 367 q 124 253 124 288 l 78 253 z "},"":{"ha":581,"x_min":108,"x_max":160,"o":"m 160 694 l 160 689 l 160 678 q 158 643 160 663 l 158 608 l 158 596 l 158 592 l 108 592 l 108 597 l 108 608 l 108 643 q 110 678 110 663 l 110 689 l 110 694 l 160 694 z "},"":{"ha":581,"x_min":108,"x_max":160,"o":"m 160 694 l 160 689 l 160 678 q 158 643 160 663 l 158 608 l 158 596 l 158 592 l 108 592 l 108 597 l 108 608 l 108 643 q 110 678 110 663 l 110 689 l 110 694 l 160 694 z "},"":{"ha":721,"x_min":108,"x_max":299,"o":"m 299 694 l 299 690 l 299 679 l 299 644 l 299 608 l 299 597 l 299 593 l 249 593 l 249 597 l 249 608 l 249 644 l 249 679 l 249 690 l 249 694 l 299 694 m 160 694 l 160 690 l 160 678 q 158 643 160 663 l 158 608 l 158 597 l 158 593 l 108 593 l 108 597 l 108 608 l 108 643 q 110 679 110 663 l 110 690 l 110 694 l 160 694 z "},"":{"ha":721,"x_min":108,"x_max":299,"o":"m 299 694 l 299 690 l 299 679 l 299 644 l 299 608 l 299 597 l 299 593 l 249 593 l 249 597 l 249 608 l 249 644 l 249 679 l 249 690 l 249 694 l 299 694 m 160 694 l 160 690 l 160 678 q 158 643 160 663 l 158 608 l 158 597 l 158 593 l 108 593 l 108 597 l 108 608 l 108 643 q 110 679 110 663 l 110 690 l 110 694 l 160 694 z "},"":{"ha":1047,"x_min":-19,"x_max":625,"o":"m 168 265 l 83 265 l 69 265 q 162 108 93 169 q 329 32 231 46 q 168 265 200 111 m 160 363 q 126 362 151 363 q 81 361 100 361 l 60 361 l 60 342 q 60 328 60 338 q 61 315 61 319 l 82 315 l 161 315 q 160 342 160 324 l 160 363 m 165 413 q 324 647 190 565 q 154 569 224 633 q 65 411 85 506 l 81 411 q 165 413 119 413 m -18 314 l -11 314 l 10 314 l 11 314 q 10 328 11 319 q 10 342 10 336 l 10 361 l 8 361 l -12 361 l -19 361 l -19 411 l -12 411 l 8 411 l 15 411 q 134 618 36 538 q 371 700 232 699 l 372 700 l 574 701 l 575 701 l 574 650 l 538 650 l 518 650 q 319 583 401 649 q 215 413 236 517 l 301 413 q 522 414 422 413 l 596 414 l 617 414 l 624 414 l 624 364 l 617 364 l 596 364 l 524 364 q 303 363 422 363 l 210 363 l 210 342 q 211 315 210 324 l 304 315 q 525 317 425 317 l 597 317 l 618 317 l 625 317 l 625 267 l 618 267 l 599 267 l 525 267 q 304 265 425 267 l 219 265 q 329 92 244 157 q 533 29 414 28 q 536 28 535 29 l 579 29 l 578 -22 l 382 -22 l 382 -21 q 144 57 243 -21 q 18 264 46 135 l 10 264 l -11 264 l -18 264 l -18 314 z "},"":{"ha":1389,"x_min":0,"x_max":0,"o":""},"":{"ha":417,"x_min":0,"x_max":0,"o":""}}}
